<svg width="38" height="22" viewBox="0 0 38 22" fill="none" xmlns="http://www.w3.org/2000/svg">
<path d="M2.72461 9.36133C3.278 8.5931 4.0625 8.03972 5.07813 7.70118L0 21.4414H1.60156L4.94141 12.418L4.54102 21.4414H7.28516L10.5 14L9.76561 21.4414H12.6465L13.5 16C11.773 14.3722 11.0055 13.6753 10 11.7637L7.46094 17.2617L7.91992 6.72461C7.4056 6.53581 6.90104 6.44141 6.40625 6.44141C5.90495 6.44141 5.39714 6.51302 4.88281 6.65625C4.375 6.79297 3.88346 6.99154 3.4082 7.25195C2.93294 7.50586 2.49023 7.80534 2.08008 8.15039C1.67643 8.48894 1.32162 8.85352 1.01563 9.24414C0.703129 9.64779 0.462239 10.0645 0.292968 10.4941C0.123698 10.9238 0.039062 11.347 0.039062 11.7637C0.039062 12.4017 0.234375 12.8704 0.625 13.1699C0.983069 13.4434 1.50065 13.5801 2.17773 13.5801C2.17773 13.528 2.16471 13.4792 2.13867 13.4336C2.0931 13.362 2.06055 13.2904 2.04102 13.2187C1.94987 12.9714 1.9043 12.6328 1.9043 12.2031C1.9043 11.0703 2.17773 10.123 2.72461 9.36133Z" fill="#FF8ACB"/>
<path d="M14.7461 6.72461H11.8652L11.5 8C12.194 8.93758 12.0567 10.9077 14.1001 11.2524L14.7461 6.72461Z" fill="#FF8ACB"/>
<path d="M27.8641 5.99713C27.8641 3.93948 26.6482 2.18916 24.8979 1.4142C24.2833 1.14697 23.6152 1 22.9071 1C21.277 1 19.834 1.78831 18.9387 2.99083C18.0302 1.78831 16.5871 1 14.957 1C12.218 1 10 3.23133 10 5.99713C10 9.57797 11.8973 12.317 14.0084 14.1743C15.5717 15.5505 17.2686 16.4457 18.3776 16.8198C18.6849 16.9267 19.1793 16.9267 19.4866 16.8198C21.4889 16.1386 25.3969 13.783 27.0714 9.86396" stroke="#FF8ACB" stroke-width="1.5" stroke-linecap="round" stroke-linejoin="round"/>
<path d="M23 12.0024C23 9.78716 24.7765 8 26.9703 8C28.2759 8 29.4317 8.63138 30.1594 9.59453C30.8764 8.63138 32.0322 8 33.3378 8C33.9049 8 34.44 8.11772 34.9323 8.33175C36.3342 8.95244 37.308 10.3543 37.308 12.0024C37.308 17.0107 32.6743 19.9644 30.5981 20.6707C30.352 20.7563 29.956 20.7563 29.7099 20.6707C28.8217 20.3711 27.4626 19.654 26.2105 18.5518C25.5109 17.9364 24.8407 17.2 24.2953 16.3451" stroke="#FF8ACB" stroke-width="1.20141" stroke-linecap="round" stroke-linejoin="round"/>
</svg>
