<svg width="30" height="30" viewBox="0 0 30 30" fill="none" xmlns="http://www.w3.org/2000/svg">
<path fill-rule="evenodd" clip-rule="evenodd" d="M3.76625 11.4388C3.75 12.1137 3.75 12.8775 3.75 13.75V16.25C3.75 19.785 3.75 21.5538 4.84875 22.6513C5.94625 23.75 7.715 23.75 11.25 23.75H18.75C22.285 23.75 24.0538 23.75 25.1513 22.6513C26.25 21.5538 26.25 19.785 26.25 16.25V13.75C26.25 12.8775 26.25 12.1125 26.2337 11.4388L16.2137 17.005C15.8424 17.2112 15.4247 17.3194 15 17.3194C14.5753 17.3194 14.1576 17.2112 13.7863 17.005L3.76625 11.4388ZM4.05375 8.7875C4.15792 8.8125 4.25917 8.8525 4.3575 8.9075L15 14.82L25.6425 8.9075C25.7417 8.85333 25.8429 8.81333 25.9463 8.7875C25.7838 8.195 25.5338 7.73125 25.1513 7.34875C24.0538 6.25 22.285 6.25 18.75 6.25H11.25C7.715 6.25 5.94625 6.25 4.84875 7.34875C4.465 7.73125 4.21625 8.195 4.05375 8.78625" fill="#FF28A0"/>
</svg>
