<svg width="44" height="44" viewBox="0 0 44 44" fill="none" xmlns="http://www.w3.org/2000/svg">
<path fill-rule="evenodd" clip-rule="evenodd" d="M22 43.9961C9.84974 43.9961 0 34.1464 0 21.9961C0 9.84583 9.84974 -0.00390625 22 -0.00390625C34.1503 -0.00390625 44 9.84583 44 21.9961C44 34.1464 34.1503 43.9961 22 43.9961Z" fill="#F9F9F9"/>
<path fill-rule="evenodd" clip-rule="evenodd" d="M21.9992 29.882L29.1902 22.382C30.4864 21.0869 30.8076 19.1073 29.9875 17.4688V17.4688C29.3758 16.2457 28.2134 15.3912 26.8635 15.1722C25.5137 14.9531 24.1408 15.3963 23.1737 16.3633L21.9992 17.537L20.8247 16.3633C19.8577 15.3963 18.4848 14.9531 17.1349 15.1722C15.785 15.3912 14.6227 16.2457 14.011 17.4688V17.4688C13.192 19.1066 13.5128 21.0847 14.8075 22.3798L21.9992 29.882Z" stroke="#F93C65" stroke-width="1.5" stroke-linecap="round" stroke-linejoin="round"/>
</svg>
