<svg width="14" height="14" viewBox="0 0 14 14" fill="none" xmlns="http://www.w3.org/2000/svg">
<g clip-path="url(#clip0_293_11356)">
<path d="M7.2 3.80117C6.575 3.80117 5.94167 3.90117 5.3 4.10117C4.75833 4.27617 4.22083 4.52201 3.6875 4.83867C3.25417 5.08867 2.82917 5.37617 2.4125 5.70117C2.12083 5.9345 1.84583 6.18034 1.5875 6.43867L1.3 6.73867L1.0625 7.00117L1.3 7.26367L1.5625 7.53867C1.79583 7.77201 2.05 7.99701 2.325 8.21367C2.7 8.52201 3.0875 8.80117 3.4875 9.05117C3.9875 9.35117 4.4875 9.59284 4.9875 9.77617C5.57917 10.0012 6.16667 10.1345 6.75 10.1762C6.88333 10.1928 7.03333 10.2012 7.2 10.2012C7.36667 10.2012 7.51667 10.1928 7.65 10.1762C8.23333 10.1345 8.82083 10.0012 9.4125 9.77617C9.9125 9.59284 10.4125 9.35117 10.9125 9.05117C11.3125 8.80117 11.7 8.52201 12.075 8.21367C12.35 7.99701 12.6042 7.77201 12.8375 7.53867L13.1 7.26367L13.3375 7.00117L13.1 6.73867L12.8125 6.43867C12.5542 6.18034 12.2792 5.9345 11.9875 5.70117C11.5708 5.37617 11.1458 5.08867 10.7125 4.83867C10.1792 4.52201 9.64167 4.27617 9.1 4.10117C8.45833 3.90117 7.825 3.80117 7.2 3.80117ZM7.2 4.60117C7.975 4.60117 8.775 4.78867 9.6 5.16367C9.86667 5.60534 10 6.08451 10 6.60117C10 7.07617 9.89167 7.51784 9.675 7.92617C9.45833 8.33451 9.15833 8.66784 8.775 8.92617C8.39167 9.18451 7.97083 9.33867 7.5125 9.38867L7.2 9.40117C7.13333 9.40117 7.02917 9.39701 6.8875 9.38867C6.42917 9.33867 6.00833 9.18451 5.625 8.92617C5.24167 8.66784 4.94167 8.33451 4.725 7.92617C4.50833 7.51784 4.4 7.07617 4.4 6.60117C4.4 6.08451 4.52917 5.60951 4.7875 5.17617H4.775C5.60833 4.79284 6.41667 4.60117 7.2 4.60117ZM7.2 5.40117C6.86667 5.40117 6.58333 5.51784 6.35 5.75117C6.11667 5.98451 6 6.26784 6 6.60117C6 6.93451 6.11667 7.21784 6.35 7.45117C6.58333 7.68451 6.86667 7.80117 7.2 7.80117C7.53333 7.80117 7.81667 7.68451 8.05 7.45117C8.28333 7.21784 8.4 6.93451 8.4 6.60117C8.4 6.26784 8.28333 5.98451 8.05 5.75117C7.81667 5.51784 7.53333 5.40117 7.2 5.40117ZM3.7 5.77617C3.63333 6.0595 3.6 6.33451 3.6 6.60117C3.6 7.29284 3.78333 7.93034 4.15 8.51367C3.45 8.10534 2.80417 7.60117 2.2125 7.00117C2.64583 6.55951 3.14167 6.15117 3.7 5.77617ZM10.7 5.77617C11.2583 6.15117 11.7542 6.55951 12.1875 7.00117C11.5958 7.60117 10.95 8.10534 10.25 8.51367C10.6167 7.93034 10.8 7.29284 10.8 6.60117C10.8 6.33451 10.7667 6.0595 10.7 5.77617Z" fill="#6D6E6F"/>
</g>
<defs>
<clipPath id="clip0_293_11356">
<rect width="13" height="12.8" fill="white" transform="matrix(1 0 0 -1 0.699219 13.4004)"/>
</clipPath>
</defs>
</svg>
