<?xml version="1.0" encoding="UTF-8"?>
<svg id="Layer_1" xmlns="http://www.w3.org/2000/svg" version="1.1" xmlns:xlink="http://www.w3.org/1999/xlink" viewBox="0 0 841.89 595.28">
  <!-- Generator: Adobe Illustrator 29.1.0, SVG Export Plug-In . SVG Version: 2.1.0 Build 142)  -->
  <defs>
    <style>
      .st0 {
        fill: url(#New_Gradient_Swatch21);
      }

      .st1 {
        fill: url(#New_Gradient_Swatch22);
      }

      .st2 {
        fill: url(#New_Gradient_Swatch20);
      }

      .st3 {
        fill: url(#New_Gradient_Swatch7);
      }

      .st4 {
        fill: url(#New_Gradient_Swatch1);
      }

      .st5 {
        fill: url(#New_Gradient_Swatch9);
      }

      .st6 {
        fill: url(#New_Gradient_Swatch23);
      }

      .st7 {
        fill: url(#New_Gradient_Swatch3);
      }

      .st8 {
        fill: url(#New_Gradient_Swatch11);
      }

      .st9 {
        fill: url(#New_Gradient_Swatch2);
      }

      .st10 {
        fill: url(#New_Gradient_Swatch10);
      }

      .st11 {
        fill: url(#New_Gradient_Swatch5);
      }

      .st12 {
        fill: url(#New_Gradient_Swatch8);
      }

      .st13 {
        fill: url(#New_Gradient_Swatch24);
      }

      .st14 {
        fill: url(#New_Gradient_Swatch13);
      }

      .st15 {
        fill: url(#New_Gradient_Swatch14);
      }

      .st16 {
        fill: url(#New_Gradient_Swatch17);
      }

      .st17 {
        fill: url(#New_Gradient_Swatch16);
      }

      .st18 {
        fill: url(#New_Gradient_Swatch19);
      }

      .st19 {
        fill: url(#New_Gradient_Swatch);
      }

      .st20 {
        fill: url(#New_Gradient_Swatch12);
      }

      .st21 {
        fill: url(#New_Gradient_Swatch15);
      }

      .st22 {
        fill: url(#New_Gradient_Swatch18);
      }

      .st23 {
        fill: url(#New_Gradient_Swatch4);
      }

      .st24 {
        fill: url(#New_Gradient_Swatch6);
      }

      .st25 {
        fill: url(#New_Gradient_Swatch25);
      }
    </style>
    <linearGradient id="New_Gradient_Swatch" data-name="New Gradient Swatch" x1="254.42" y1="402.6" x2="281.5" y2="449.5" gradientUnits="userSpaceOnUse">
      <stop offset="0" stop-color="#cb3b8b"/>
      <stop offset=".16" stop-color="#f971bc"/>
      <stop offset=".3" stop-color="#ff59b6"/>
      <stop offset=".46" stop-color="#ffa4d6"/>
      <stop offset=".66" stop-color="#ff59b6"/>
      <stop offset=".82" stop-color="#f971bc"/>
      <stop offset="1" stop-color="#cb3b8b"/>
    </linearGradient>
    <linearGradient id="New_Gradient_Swatch1" data-name="New Gradient Swatch" x1="298.04" y1="426.33" x2="308.29" y2="444.07" xlink:href="#New_Gradient_Swatch"/>
    <linearGradient id="New_Gradient_Swatch2" data-name="New Gradient Swatch" x1="313.22" y1="413.81" x2="332.06" y2="446.43" xlink:href="#New_Gradient_Swatch"/>
    <linearGradient id="New_Gradient_Swatch3" data-name="New Gradient Swatch" x1="344.58" y1="424.6" x2="353.9" y2="440.75" xlink:href="#New_Gradient_Swatch"/>
    <linearGradient id="New_Gradient_Swatch4" data-name="New Gradient Swatch" x1="368.18" y1="425.81" x2="379.62" y2="445.63" xlink:href="#New_Gradient_Swatch"/>
    <linearGradient id="New_Gradient_Swatch5" data-name="New Gradient Swatch" x1="397.2" y1="420.65" x2="413.88" y2="449.54" xlink:href="#New_Gradient_Swatch"/>
    <linearGradient id="New_Gradient_Swatch6" data-name="New Gradient Swatch" x1="462.12" y1="402.6" x2="489.19" y2="449.5" xlink:href="#New_Gradient_Swatch"/>
    <linearGradient id="New_Gradient_Swatch7" data-name="New Gradient Swatch" x1="506.83" y1="425.81" x2="518.27" y2="445.63" xlink:href="#New_Gradient_Swatch"/>
    <linearGradient id="New_Gradient_Swatch8" data-name="New Gradient Swatch" x1="526.06" y1="415.37" x2="540.98" y2="441.21" xlink:href="#New_Gradient_Swatch"/>
    <linearGradient id="New_Gradient_Swatch9" data-name="New Gradient Swatch" x1="546.67" y1="426.42" x2="557.02" y2="444.36" xlink:href="#New_Gradient_Swatch"/>
    <linearGradient id="New_Gradient_Swatch10" data-name="New Gradient Swatch" x1="562.4" y1="413.81" x2="581.23" y2="446.43" xlink:href="#New_Gradient_Swatch"/>
    <linearGradient id="New_Gradient_Swatch11" data-name="New Gradient Swatch" x1="354.01" y1="248.15" x2="396.58" y2="290.72" xlink:href="#New_Gradient_Swatch"/>
    <linearGradient id="New_Gradient_Swatch12" data-name="New Gradient Swatch" x1="335.38" y1="295.51" x2="397.24" y2="357.37" xlink:href="#New_Gradient_Swatch"/>
    <linearGradient id="New_Gradient_Swatch13" data-name="New Gradient Swatch" x1="347.18" y1="224.31" x2="375.1" y2="252.23" xlink:href="#New_Gradient_Swatch"/>
    <linearGradient id="New_Gradient_Swatch14" data-name="New Gradient Swatch" x1="338.65" y1="284.96" x2="371" y2="317.31" xlink:href="#New_Gradient_Swatch"/>
    <linearGradient id="New_Gradient_Swatch15" data-name="New Gradient Swatch" x1="344.85" y1="218.25" x2="360.53" y2="233.93" xlink:href="#New_Gradient_Swatch"/>
    <linearGradient id="New_Gradient_Swatch16" data-name="New Gradient Swatch" x1="311.45" y1="185.93" x2="494.17" y2="368.65" xlink:href="#New_Gradient_Swatch"/>
    <linearGradient id="New_Gradient_Swatch17" data-name="New Gradient Swatch" x1="436.74" y1="259.16" x2="469.69" y2="292.1" xlink:href="#New_Gradient_Swatch"/>
    <linearGradient id="New_Gradient_Swatch18" data-name="New Gradient Swatch" x1="417.39" y1="342.57" x2="423.16" y2="348.34" xlink:href="#New_Gradient_Swatch"/>
    <linearGradient id="New_Gradient_Swatch19" data-name="New Gradient Swatch" x1="407.79" y1="294.24" x2="432.03" y2="318.49" xlink:href="#New_Gradient_Swatch"/>
    <linearGradient id="New_Gradient_Swatch20" data-name="New Gradient Swatch" x1="409.93" y1="303.87" x2="430.16" y2="324.1" xlink:href="#New_Gradient_Swatch"/>
    <linearGradient id="New_Gradient_Swatch21" data-name="New Gradient Swatch" x1="413.16" y1="313.82" x2="426.94" y2="327.61" xlink:href="#New_Gradient_Swatch"/>
    <linearGradient id="New_Gradient_Swatch22" data-name="New Gradient Swatch" x1="415.04" y1="320.07" x2="425.1" y2="330.12" xlink:href="#New_Gradient_Swatch"/>
    <linearGradient id="New_Gradient_Swatch23" data-name="New Gradient Swatch" x1="432.14" y1="298.96" x2="442.74" y2="309.56" xlink:href="#New_Gradient_Swatch"/>
    <linearGradient id="New_Gradient_Swatch24" data-name="New Gradient Swatch" x1="399.52" y1="301.21" x2="405.48" y2="307.17" xlink:href="#New_Gradient_Swatch"/>
    <linearGradient id="New_Gradient_Swatch25" data-name="New Gradient Swatch" x1="416.31" y1="294.87" x2="423.34" y2="301.9" xlink:href="#New_Gradient_Swatch"/>
  </defs>
  <g>
    <path class="st19" d="M286.01,441.94c-.05.45.1.95.9.95,1.64,0,4.19-1.89,6.18-4.39.75-1.05,2.84-.45,1.5,1.55-2.64,3.84-9.47,8.52-14.46,7.43-3.19-.65-3.54-3.84-2.89-6.38l6.73-23.43c-2.44,6.48-8.82,19.24-16,19.84-7.88.6-5.88-14.01-6.88-21.98-2.59,9.17-6.93,24.38-6.93,24.58-1.74,5.08-4.54,8.77-9.92,8.77-2.19,0-5.33-1.94-5.33-3.39,2.59.25,5.43-1.25,7.58-7.08l5.23-17.7,3.64-14.41c.05-.05.05-.15.05-.3-3.79,1.59-6.53,4.69-8.87,7.68-1.25,1.59-2.34,3.74-2.34,5.33,0,1.7,1.99,3.54,3.04,2.04,1.59,0,1.74,6.33-4.54,6.33-3.24,0-5.53-2.89-5.53-6.28.2-11.37,15.7-18.54,22.73-18.54,3.99,0,6.73,3.09,7.78,7.18.55,2.14,1,6.48,1.25,10.27l.45,7.13c0,.85.2,2.39,1.2,2.39,6.28,0,13.11-27.07,21.49-27.07,2.99,0,4.64,1.9,4.04,4.04l-10.07,35.44Z"/>
    <path class="st4" d="M314.53,438.55c-2.39,3.84-7.43,6.98-12.21,6.98-6.68,0-10.12-5.18-9.32-9.62,1.45-8.13,6.83-12.06,12.61-12.06,2.89,0,6.28,2.19,5.73,5.58-.4,3.54-4.04,5.78-7.38,6.33-1,.2-2.09.1-2.89-.1-1.05,5.18,3.39,6.08,4.34,6.08,2.74,0,6.13-2.49,7.73-4.74.8-.9,2.74-.45,1.4,1.55ZM301.67,433.36c2.14-.4,5.04-2.34,5.18-4.98.05-.85-.1-1.25-.45-1.25-.8,0-3.14,1.25-4.74,6.23Z"/>
    <path class="st9" d="M342.15,438.35c-1.64,2.44-5.88,7.18-11.02,7.18-3.39,0-5.63-1.94-4.98-5.33l3.09-10.82c.15-.6.25-1.75-.8-1.75-1.2,0-2.94,1.35-4.54,3.09l-3.04,10.82c-.2.65,0,1.05.25,1.4l.5.45c-.45.4-.95.75-1.5,1.05-.95.55-2.34,1.05-3.99,1.05-2.84,0-4.49-1.89-3.94-3.89l8.38-29.56c.15-.55.1-1.05-.25-1.4l-.5-.45c.45-.35.95-.7,1.5-1.05.95-.55,2.24-1.05,3.99-1.05,2.84,0,4.49,1.9,3.94,3.89l-4.14,14.66c2.14-1.64,4.64-2.94,7.83-2.94,1.94,0,3.19.4,3.99,1.15,1.15.85,1.6,2.24,1.25,3.49l-3.34,11.91c-.05.45.05.95.85.95,1.6,0,3.59-2.49,5.04-4.34.8-.9,2.64-.5,1.44,1.5Z"/>
    <path class="st7" d="M361.34,430.92c-.75,2.19-2.54,4.19-5.13,4.19-2.04,0-3.24-1.75-2.19-2.89,1-1.25,1-3.04.4-3.19-1.35-.25-3.39,3.64-4.98,8.18l-1.25,4.39c-.2.65,0,1.05.25,1.4l.5.45c-.45.4-.95.75-1.5,1.05-.95.55-2.39,1.05-4.04,1.05-2.79,0-4.44-1.89-3.89-3.89l3.94-13.96c.15-.6,0-1.05-.2-1.4l-.5-.45c.45-.35.95-.7,1.5-1.05.95-.55,2.24-1.05,3.99-1.05,2.79,0,4.44,1.84,3.89,3.89l-.65,2.19c1.6-3.29,3.69-6.08,5.83-6.08,4.54,0,4.98,4.54,4.04,7.18Z"/>
    <path class="st23" d="M376.6,445.47c-1.35,0-3.59-1-3.59-3.19-1.59,1.65-3.04,3.19-5.18,3.19-5.33,0-6.43-5.48-5.63-9.92,1.45-8.13,7.78-12.06,13.56-12.06,3.99,0,5.98,1.3,7.13,2.54.65.8,1,1.64,1.15,2.49l-3.24,11.47c-.05.45.1.95.9.95,1.6,0,4.09-1.84,5.93-4.24.8-1.1,2.69-.5,1.4,1.5-2.24,3.74-7.63,7.28-12.41,7.28ZM373.56,438.2l2.14-7.58c.55-2.19,1-3.54-.45-3.29-1.45.25-4.09,1.64-5.28,7.03-.75,3.39-.15,4.79.9,5.18.95.35,1.55-.4,2.69-1.35Z"/>
    <path class="st11" d="M430.34,438.35c-1.75,2.64-8.27,7.98-14.01,7.03-3.19-.55-3.39-3.64-2.99-5.23l3.09-10.82c.15-.55.25-1.7-.8-1.7-1.2,0-2.94,1.35-4.54,3.09l-3.04,10.82c-.2.65,0,1,.25,1.35l.5.45c-.45.4-.95.75-1.5,1.05-.95.55-2.34,1.05-3.99,1.05-2.84,0-4.49-1.84-3.94-3.84l3.49-12.26c.15-.55.2-1.7-.8-1.7-1.35,0-3.44,1.7-5.18,3.84l-2.84,10.07c-.2.65,0,1,.25,1.35l.5.45c-.45.4-.95.75-1.5,1.05-.95.55-2.34,1.05-3.99,1.05-2.84,0-4.49-1.84-3.94-3.84l3.99-14.01c.15-.55.05-1-.25-1.35l-.5-.45c.45-.35.95-.7,1.5-1.05.95-.55,2.24-1.1,3.99-1.1,2.59,0,4.24,1.6,3.99,3.44,2.24-1.84,4.88-3.44,8.47-3.44,2.34,0,4.64.75,5.28,3.29,2.19-1.79,4.88-3.29,8.27-3.29,2.34,0,6.18,1.45,5.23,4.69l-3.34,11.86c-.05.45.05.95.85.95,2.29,0,4.54-2.39,6.03-4.29.8-.9,2.64-.5,1.45,1.5Z"/>
    <path class="st24" d="M493.71,441.94c-.05.45.1.95.9.95,1.64,0,4.19-1.89,6.18-4.39.75-1.05,2.84-.45,1.5,1.55-2.64,3.84-9.47,8.52-14.46,7.43-3.19-.65-3.54-3.84-2.89-6.38l6.73-23.43c-2.44,6.48-8.82,19.24-16,19.84-7.88.6-5.88-14.01-6.88-21.98-2.59,9.17-6.93,24.38-6.93,24.58-1.74,5.08-4.54,8.77-9.92,8.77-2.19,0-5.33-1.94-5.33-3.39,2.59.25,5.43-1.25,7.58-7.08l5.23-17.7,3.64-14.41c.05-.05.05-.15.05-.3-3.79,1.59-6.53,4.69-8.87,7.68-1.25,1.59-2.34,3.74-2.34,5.33,0,1.7,1.99,3.54,3.04,2.04,1.59,0,1.74,6.33-4.54,6.33-3.24,0-5.53-2.89-5.53-6.28.2-11.37,15.7-18.54,22.73-18.54,3.99,0,6.73,3.09,7.78,7.18.55,2.14,1,6.48,1.25,10.27l.45,7.13c0,.85.2,2.39,1.2,2.39,6.28,0,13.11-27.07,21.49-27.07,2.99,0,4.64,1.9,4.04,4.04l-10.07,35.44Z"/>
    <path class="st3" d="M515.25,445.47c-1.35,0-3.59-1-3.59-3.19-1.59,1.65-3.04,3.19-5.18,3.19-5.33,0-6.43-5.48-5.63-9.92,1.45-8.13,7.78-12.06,13.56-12.06,3.99,0,5.98,1.3,7.13,2.54.65.8,1,1.64,1.15,2.49l-3.24,11.47c-.05.45.1.95.9.95,1.6,0,4.09-1.84,5.93-4.24.8-1.1,2.69-.5,1.4,1.5-2.24,3.74-7.63,7.28-12.41,7.28ZM512.21,438.2l2.14-7.58c.55-2.19,1-3.54-.45-3.29-1.45.25-4.09,1.64-5.28,7.03-.75,3.39-.15,4.79.9,5.18.95.35,1.55-.4,2.69-1.35Z"/>
    <path class="st12" d="M543.02,438.25c-.7,1.25-6.23,6.88-11.81,7.28-4.39.25-7.03-4.29-5.83-8.52l3.49-12.41c-.75.05-1.44.25-2.19.5-.8-.8-.4-4.24,3.24-4.24l1.79-6.28c.15-.55.1-1.05-.25-1.4l-.5-.45c.45-.35.95-.7,1.5-1.05.95-.55,2.29-1.05,4.04-1.05,2.79,0,4.44,1.84,3.89,3.84l-2.09,7.43c1.25.4,3.44.05,4.24-.5.85.85.55,4.49-2.94,4.49-.85,0-1.94-.1-2.34-.3l-3.79,13.51c-.25,1.45,1.1,1.94,2.14,1.7,1.64-.55,4.49-2.14,5.98-4.04.8-1.05,2.64-.5,1.44,1.5Z"/>
    <path class="st5" d="M563.81,438.5c-.65,1.05-5.83,7.73-13.76,7.33-6.63-.4-9.07-5.53-8.27-9.92,1.45-8.13,6.83-12.06,12.61-12.06,4.54,0,6.33,3.69,5.68,6.23-.65,2.59-1.94,4.04-4.34,4.04s-2.29-2.49-1.35-3.14c1.2-.95,1.7-3.84.8-3.84s-3.44,1.4-5.13,7.48c-1.59,6.13,2.89,7.43,4.09,7.43,3.29,0,6.18-2.44,8.27-5.03.65-1.05,2.69-.5,1.4,1.5Z"/>
    <path class="st10" d="M591.32,438.35c-1.64,2.44-5.88,7.18-11.02,7.18-3.39,0-5.63-1.94-4.98-5.33l3.09-10.82c.15-.6.25-1.75-.8-1.75-1.2,0-2.94,1.35-4.54,3.09l-3.04,10.82c-.2.65,0,1.05.25,1.4l.5.45c-.45.4-.95.75-1.5,1.05-.95.55-2.34,1.05-3.99,1.05-2.84,0-4.49-1.89-3.94-3.89l8.38-29.56c.15-.55.1-1.05-.25-1.4l-.5-.45c.45-.35.95-.7,1.5-1.05.95-.55,2.24-1.05,3.99-1.05,2.84,0,4.49,1.9,3.94,3.89l-4.14,14.66c2.14-1.64,4.64-2.94,7.83-2.94,1.94,0,3.19.4,3.99,1.15,1.15.85,1.6,2.24,1.25,3.49l-3.34,11.91c-.05.45.05.95.85.95,1.6,0,3.59-2.49,5.04-4.34.8-.9,2.64-.5,1.44,1.5Z"/>
  </g>
  <g>
    <path class="st8" d="M394.32,240.96c-.59-2.59-1.34-2.89-3.73-1.84-.4.18-.79.39-1.18.6-6.82,3.65-13.53,7.54-20.49,10.89-10.29,4.95-20.75,9.54-31.18,14.2-1.43.64-1.75,1.35-1.22,2.7,1.65,4.26,2.47,8.64,2.26,13.24-.03.7.7,1.78,1.37,2.1,10.08,4.93,20.22,9.72,30.29,14.66,1.35.66,2.11.7,2.89-.62.91-1.52,2.26-1.89,4.01-1.55,3.04.58,6.12.97,9.18,1.44,4.7.26,7.83-2.05,7.33-7.38-.19-2.07-.05-4.14,1.56-5.8.32-.33.48-.94.51-1.42.1-2.27.2-4.54.14-6.8-.06-2,.4-3.11,2.74-2.67.89.17,1.9-.17,2.83-.36,2.71-.55,3.4-1.7,2.2-4.19-1.31-2.72-2.76-5.4-4.4-7.92-2.58-3.95-3.88-8.22-4.1-12.91-.1-2.13-.51-4.26-.99-6.34Z"/>
    <path class="st20" d="M330.5,300.61c-1.18,2.08-.87,4.5,1.07,6.75,4.67,5.43,9.33,10.88,14.1,16.22,10.69,11.97,22.18,22.97,36.99,29.82,4.25,1.96,8.61,3.69,12.92,5.52.21-.17.41-.33.62-.5-.17-1.4-.23-2.83-.53-4.2-1.73-7.78-5.08-14.95-8.62-22.01-2.07-4.14-4-8.63-8.31-10.96-6.3-3.4-12.74-6.57-19.23-9.57-6.23-2.88-12.64-5.36-18.9-8.16-2.48-1.11-4.8-2.6-7.19-3.92-1.34-.74-2.21-.2-2.9,1.01Z"/>
    <path class="st14" d="M343.09,237.98c-5.56,2.72-11.32,5.05-16.95,7.64-.81.37-1.4,1.2-1.89,1.64.14.76.13,1.01.23,1.19,2.34,4.18,4.65,8.38,7.11,12.5.26.43,1.48.65,2.08.45,1.95-.64,3.86-1.44,5.72-2.31,12.11-5.65,24.22-11.29,36.29-17.03,6.32-3,12.57-6.17,18.82-9.33.52-.26,1.18-1.19,1.06-1.62-1.2-4.71-2.45-9.41-3.91-14.05-.6-1.91-2.25-2.2-4-1.34-1.79.87-3.55,1.8-5.32,2.69-13.07,6.54-26.12,13.14-39.24,19.57Z"/>
    <path class="st15" d="M363.99,311.56c2.45,1.19,4.94,2.33,7.45,3.41,1.29.55,2.22.21,2.71-1.3.73-2.24,1.53-4.47,2.51-6.6.85-1.85.15-2.72-1.5-3.37-2.33-.92-4.67-1.83-6.95-2.88-9.98-4.61-19.94-9.28-29.93-13.86-.51-.23-1.74-.04-1.89.29-1.44,3.19-2.72,6.44-4.07,9.72,1.3.3,2.44.36,3.39.81,9.44,4.56,18.85,9.2,28.28,13.79Z"/>
    <path class="st21" d="M377.74,215.42c-5.49-.37-10.99-1.14-16.47-1-7.31.19-13.97,2.64-19.76,7.35-5.56,4.52-8.12,10.96-11.62,17.23,16.7-6.53,32.22-14.84,48.06-22.49-.07-.36-.14-.73-.2-1.09Z"/>
    <path class="st17" d="M538.46,314.48c-.76-2.08-1.52-4.19-2.56-6.14-6.76-12.67-10.18-26.41-13.21-40.3-1.63-7.49-2.78-15.1-6.25-22.11-6.33-12.81-16.77-20.2-30.6-22.25-14.19-2.11-26.8,2.59-38.08,11.14-1.42,1.07-1.54,2.22-.26,3.52.72.74,1.46,1.5,2,2.37,4.44,7.15,8.85,14.32,13.24,21.5,2.89,4.73,5.66,9.53,8.62,14.22,1.02,1.62,2.45,2.98,3.71,4.48.4-.42.53-.5.59-.63.19-.4.39-.8.54-1.21,2.52-7.14,3.51-14.51,2.81-22.03-.37-4.03-1.34-8-1.88-12.01-.09-.7.44-1.9,1.02-2.19,1.13-.57,1.93.19,2.21,1.41.64,2.8,1.51,5.57,1.89,8.41,1.63,12.01.25,23.67-5.35,34.51-2.18,4.22-5.23,8.02-8.14,11.82-2.31,3.01-2.96,6.2-2.51,9.93.56-.11.85-.15,1.13-.23,9.62-2.92,16.47-9.6,22.1-17.38,7.52-10.39,12.58-21.9,12.82-35.07.01-.59.99-1.67,1.42-1.62.75.08,1.67.72,2.05,1.4.35.62.18,1.59.1,2.39-1.55,16.11-8.01,30.01-19.12,41.71-5.78,6.09-12.7,10.48-20.63,13.32-1.25.45-2.38,1.68-3.17,2.82-2.18,3.15-4.16,6.44-6.2,9.68-1.04,1.65-2.05,3.32-3.13,5.07,4.53.72,12.96-.24,18.73-2.63,16.63-6.88,28.71-18.35,35.02-35.49.24-.66,1.07-1.1,1.63-1.64.6.83,1.29,1.6,1.73,2.51.16.33-.24.96-.44,1.44-6.67,16.36-18.13,28.29-34.02,35.74-7.72,3.62-16.11,4.84-24.67,4.09-1.81-.16-2.88.63-3.42,2.15-2.13,5.97-4.29,11.94-6.22,17.97-.82,2.56-1.13,5.28-1.74,8.26,1.07,0,1.8.11,2.49-.02,7.49-1.38,14.9-3.02,21.88-6.23,8.43-3.88,16.2-8.79,23.54-14.48,6.96-5.39,13.97-10.7,19.3-17.85.74-.99,1.65-2.02,2.72-2.56.64-.32,1.75.28,2.65.47-.18.67-.17,1.51-.58,1.98-1.4,1.62-2.99,3.07-4.42,4.66-5.88,6.59-12.29,12.54-19.49,17.7-14.2,10.18-29.43,17.51-47.05,19.81-13.26,1.73-26.36,1.04-39.27-1.44-9.55-1.84-18.59-5.94-27.11-10.74-8.41-4.74-15.76-11.06-22.56-17.82-7.38-7.33-14.04-15.38-21.17-22.97-4.87-5.18-8.09-11.24-10.46-17.83-1.2-3.33-2.43-6.66-3.59-10.01-3.32-9.62-5.29-19.5-6.07-29.66-.91-11.77.4-23.32,2.73-34.82,2.13-10.5,5.65-20.57,10.97-29.82,3.84-6.68,8.48-12.94,13.18-19.07,3.67-4.79,7.68-9.41,12.07-13.53,7.53-7.07,16.39-12.29,25.55-16.98,2.93-1.5,5.83-3.06,8.75-4.59-.08-.17-.15-.34-.23-.51-1.52.48-3.02,1.03-4.56,1.44-10.05,2.67-19.47,6.66-28.3,12.27-14.17,9-26.31,20.14-35.97,33.79-12.77,18.05-21.51,37.83-24.1,60.06-1.47,12.59-1.25,25.1.68,37.6,1.89,12.18,6.44,23.48,11.8,34.47,6.18,12.67,14.33,24.03,24.25,33.97,11.16,11.19,24.34,19.7,38.7,26.23,15.95,7.25,32.78,10.68,50.31,11.09,21.25.51,41.41-3.67,60.6-12.83,10.58-5.05,19.7-12.18,28.8-19.37,10.35-8.18,17.93-18.75,25.43-29.4,2.28-3.25,4.53-6.52,6.69-9.85.33-.5.27-1.45.05-2.06Z"/>
    <path class="st16" d="M441.38,277.37c1.21.31,2.48.4,3.7.66,1.72.38,2.52,1.15,1.85,3.16-.3.89.07,2.45.73,3.12,1.14,1.16,1.2,2.13.75,3.56-.46,1.45-.89,3.04-.78,4.53.24,3.04,2.81,4.62,6.82,4.34,2.64-.19,5.28-.9,7.91-.84,2.92.06,4.97-1.19,6.69-3.22,1.09-1.29,1.86-2.85,2.97-4.12,1.21-1.37,1.03-2.43.11-3.91-6.11-9.81-12.11-19.7-18.18-29.54-1.6-2.59-3.32-5.1-4.98-7.65-.29.11-.58.23-.86.34-.3,1.36-.77,2.7-.87,4.07-.53,6.64-2.56,12.68-6.74,17.94-.55.69-.95,1.49-1.39,2.26-1.66,2.94-1.02,4.49,2.27,5.32Z"/>
    <path class="st22" d="M416.19,345.45c0,2.25,1.83,4.08,4.08,4.08s4.08-1.83,4.08-4.08-1.83-4.08-4.08-4.08-4.08,1.83-4.08,4.08Z"/>
    <path class="st18" d="M407.21,312.54l3.27-12.83,1.53-.06,5.42,12.88c1.66,0,3.36.04,5-.02l5.37-12.73c.05-.14.15-.13.33-.14.11,0,1.14.04,1.2.05.08.02.1.06.11.11,1.1,3.98,1.9,8,3.02,11.98.03.11.18.75.28.75h5.24l-4.98-17.29c-.09-.17-.77-.35-1.04-.42-1.46-.37-2.87-.42-4.39-.19-.26.04-1.25.2-1.37.34-1.92,4.27-3.71,8.57-5.62,12.84-.15.34-.35.92-.55,1.21-.04.05.03.08-.14.06l-6.26-14.18c-.14-.19-1.07-.32-1.4-.36-1.2-.16-2.6-.15-3.79.08-.28.05-1.46.38-1.55.53l-5.02,17.4h5.34Z"/>
    <path class="st2" d="M431.7,322.56c2.45-2.98,5.82-5.69,7.48-8.94h-7.78l-3.04-11.32-4.69,11.2-.12.1-7.11.02-.2-.05-4.8-11.23-3,11.28h-7.64c.42.81.96,1.58,1.59,2.32,1.74,2.05,3.85,4.05,5.68,6.08.37.4.37.35.4-.13l2.07-7.03,5.78.02,3.6,8,3.6-8,.2-.05,5.58.02.12.15,2.15,7.5.14.06Z"/>
    <path class="st0" d="M428.04,326.38c.21.02.21-.12.27-.18.11-.12.25-.21.33-.3.74-.77,1.4-1.59,2.14-2.37l-2.3-7.93-.08-.04h-4.09s-4.41,9.83-4.41,9.83l-4.3-9.79-4.18-.02-2.19,7.47v.21s2.47,2.65,2.47,2.65l.19.07,1.68-6.75c.05-.11.92-.16,1.06-.1l3.63,8.56,3.26.04,3.66-8.54c.11-.14,1.01-.1,1.11.05.48,2.04,1.06,4.08,1.55,6.12.08.34.14.69.2,1.03Z"/>
    <path class="st1" d="M427.23,327.12l-1.59-6.23-3.21,7.5-4.97-.04-3.24-7.46-1.51,6.07c2.56,2.61,4.86,5.34,7.43,7.94.03.03-.02.08.11.06l6.96-7.58v-.25Z"/>
    <path class="st6" d="M438.15,299.11c-.62-.83-1.96-2.29-3.04-2.85-.07-.03-.08-.09-.2-.07l4.8,16.4c1.77-4.3,1.45-9.46-1.57-13.48Z"/>
    <path class="st13" d="M402.04,298.84c-2.75,3.49-3.56,7.72-2.55,11.6.18.68.45,1.35.72,2.01l4.81-16.31c-.11-.02-.14.02-.2.07-1,.63-2.12,1.81-2.77,2.63Z"/>
    <path class="st25" d="M424.16,295.83c-.1-.01-.15,0-.24.04-.24.1-1.1.72-1.33.9-.97.75-1.7,1.65-2.4,2.52-1.13-1.31-2.38-2.72-4.25-3.61-.06-.03-.28-.15-.33-.12l4.27,9.79,4.27-9.52Z"/>
  </g>
</svg>