<svg width="14" height="14" viewBox="0 0 14 14" fill="none" xmlns="http://www.w3.org/2000/svg">
<path d="M4.09961 2.59883C3.55794 2.59883 3.05794 2.73424 2.59961 3.00508C2.14128 3.27591 1.77669 3.64049 1.50586 4.09883C1.23503 4.55716 1.09961 5.05716 1.09961 5.59883C1.09961 6.05716 1.26628 6.53216 1.59961 7.02383C1.75794 7.26549 1.92044 7.46133 2.08711 7.61133L6.69961 12.2363L11.4621 7.46133C11.5871 7.32799 11.7038 7.18633 11.8121 7.03633C11.9538 6.82799 12.0663 6.61549 12.1496 6.39883C12.2496 6.12383 12.2996 5.85716 12.2996 5.59883C12.2996 5.05716 12.1642 4.55716 11.8934 4.09883C11.6225 3.64049 11.2579 3.27591 10.7996 3.00508C10.3413 2.73424 9.84128 2.59883 9.29961 2.59883C8.33294 2.59883 7.46628 2.99049 6.69961 3.77383C5.93294 2.99049 5.06628 2.59883 4.09961 2.59883ZM4.09961 3.39883C4.37461 3.39883 4.66211 3.46133 4.96211 3.58633C5.20378 3.67799 5.44961 3.80716 5.69961 3.97383C5.87461 4.09883 6.04544 4.23216 6.21211 4.37383L6.39961 4.56133L6.69961 4.89883L6.99961 4.56133L7.18711 4.37383C7.35378 4.23216 7.52461 4.09883 7.69961 3.97383C7.94961 3.80716 8.19544 3.67799 8.43711 3.58633C8.73711 3.46133 9.02461 3.39883 9.29961 3.39883C9.69961 3.39883 10.0684 3.49883 10.4059 3.69883C10.7434 3.89883 11.01 4.16758 11.2059 4.50508C11.4017 4.84258 11.4996 5.20716 11.4996 5.59883C11.4996 5.78216 11.4329 5.99883 11.2996 6.24883C11.2079 6.43216 11.0913 6.61966 10.9496 6.81133L10.7496 7.04883L6.69961 11.0988L2.64961 7.04883L2.52461 6.92383C2.43294 6.80716 2.34544 6.69049 2.26211 6.57383C2.15378 6.41549 2.07044 6.25716 2.01211 6.09883C1.93711 5.91549 1.89961 5.74883 1.89961 5.59883C1.89961 5.20716 1.99753 4.84258 2.19336 4.50508C2.38919 4.16758 2.65586 3.89883 2.99336 3.69883C3.33086 3.49883 3.69961 3.39883 4.09961 3.39883Z" fill="#6D6E6F"/>
</svg>
