<svg width="60" height="60" viewBox="0 0 60 60" fill="none" xmlns="http://www.w3.org/2000/svg">
<path opacity="0.21" fill-rule="evenodd" clip-rule="evenodd" d="M0 30V37C0 49.7025 10.2975 60 23 60H30H37C49.7025 60 60 49.7025 60 37V30V23C60 10.2975 49.7025 0 37 0H30H23C10.2975 0 0 10.2975 0 23V30Z" fill="#FD2C79"/>
<path opacity="0.587821" fill-rule="evenodd" clip-rule="evenodd" d="M20.668 23.3333C20.668 26.2789 23.0558 28.6667 26.0013 28.6667C28.9468 28.6667 31.3346 26.2789 31.3346 23.3333C31.3346 20.3878 28.9468 18 26.0013 18C23.0558 18 20.668 20.3878 20.668 23.3333ZM34 28.666C34 30.8752 35.7909 32.666 38 32.666C40.2091 32.666 42 30.8752 42 28.666C42 26.4569 40.2091 24.666 38 24.666C35.7909 24.666 34 26.4569 34 28.666Z" fill="#FD2C79"/>
<path fill-rule="evenodd" clip-rule="evenodd" d="M25.9778 31.334C19.6826 31.334 14.5177 34.5693 14.0009 40.9329C13.9727 41.2796 14.6356 42.0007 14.97 42.0007H36.9956C37.9972 42.0007 38.0128 41.1946 37.9972 40.934C37.6065 34.3916 32.3616 31.334 25.9778 31.334ZM45.2739 42.002H40.1335V42.0013C40.1335 39.0004 39.1421 36.231 37.4689 34.0028C42.0103 34.0529 45.7183 36.3493 45.9973 41.202C46.0086 41.3974 45.9973 42.002 45.2739 42.002Z" fill="#FD2C79"/>
</svg>
