<svg width="50" height="50" viewBox="0 0 50 50" fill="none" xmlns="http://www.w3.org/2000/svg">
<g>
<path d="M32.1108 17.1569L26.6983 6.25691C26.5408 5.94146 26.2984 5.67614 25.9985 5.4907C25.6986 5.30526 25.353 5.20703 25.0004 5.20703C24.6478 5.20703 24.3022 5.30526 24.0023 5.4907C23.7024 5.67614 23.46 5.94146 23.3025 6.25691L17.89 17.1569L5.78998 18.9152C5.44097 18.9636 5.11259 19.1092 4.84234 19.3353C4.57208 19.5613 4.37083 19.8589 4.26156 20.1938C4.15229 20.5288 4.1394 20.8878 4.22437 21.2297C4.30933 21.5717 4.48872 21.8829 4.74207 22.1277L13.4962 30.6069L11.4296 42.5861C11.165 44.1236 12.79 45.2944 14.1796 44.5694L25.0004 38.9111L35.8233 44.5694C37.2108 45.2965 38.8358 44.1236 38.5712 42.584L36.5046 30.6048L45.2587 22.1257C45.5108 21.8806 45.6892 21.5697 45.7734 21.2284C45.8576 20.8871 45.8444 20.5289 45.7353 20.1947C45.6261 19.8605 45.4254 19.5636 45.1559 19.3378C44.8864 19.112 44.559 18.9663 44.2108 18.9173L32.1108 17.1569Z" fill="url(#paint0_linear_295_10013)"/>
</g>
<defs>
<linearGradient id="paint0_linear_295_10013" x1="45.8342" y1="4.16536" x2="13" y2="45" gradientUnits="userSpaceOnUse">
<stop offset="0.398844" stop-color="#FDFF88"/>
<stop offset="0.536361" stop-color="#FBFF00"/>
<stop offset="1" stop-color="white"/>
</linearGradient>
</defs>
</svg>
