<svg width="14" height="14" viewBox="0 0 14 14" fill="none" xmlns="http://www.w3.org/2000/svg">
<g clip-path="url(#clip0_293_11352)">
<path d="M4.29961 3.39961C3.86628 3.39961 3.46628 3.50794 3.09961 3.72461C2.73294 3.94128 2.44128 4.23294 2.22461 4.59961C2.00794 4.96628 1.89961 5.36628 1.89961 5.79961C1.89961 6.19128 1.98711 6.55586 2.16211 6.89336C2.33711 7.23086 2.57878 7.51211 2.88711 7.73711C2.35378 8.00378 1.92253 8.39336 1.59336 8.90586C1.26419 9.41836 1.09961 9.98294 1.09961 10.5996H1.89961C1.89961 10.1663 2.00794 9.76628 2.22461 9.39961C2.44128 9.03294 2.73294 8.74128 3.09961 8.52461C3.46628 8.30794 3.86628 8.19961 4.29961 8.19961C4.73294 8.19961 5.13294 8.30794 5.49961 8.52461C5.86628 8.74128 6.15794 9.03294 6.37461 9.39961C6.59128 9.76628 6.69961 10.1663 6.69961 10.5996H7.49961C7.49961 10.1663 7.60794 9.76628 7.82461 9.39961C8.04128 9.03294 8.33294 8.74128 8.69961 8.52461C9.06628 8.30794 9.46628 8.19961 9.89961 8.19961C10.3329 8.19961 10.7329 8.30794 11.0996 8.52461C11.4663 8.74128 11.7579 9.03294 11.9746 9.39961C12.1913 9.76628 12.2996 10.1663 12.2996 10.5996H13.0996C13.0996 9.98294 12.935 9.41836 12.6059 8.90586C12.2767 8.39336 11.8454 8.00378 11.3121 7.73711C11.6204 7.51211 11.8621 7.23086 12.0371 6.89336C12.2121 6.55586 12.2996 6.19128 12.2996 5.79961C12.2996 5.36628 12.1913 4.96628 11.9746 4.59961C11.7579 4.23294 11.4663 3.94128 11.0996 3.72461C10.7329 3.50794 10.3329 3.39961 9.89961 3.39961C9.46628 3.39961 9.06628 3.50794 8.69961 3.72461C8.33294 3.94128 8.04128 4.23294 7.82461 4.59961C7.60794 4.96628 7.49961 5.36628 7.49961 5.79961C7.49961 6.19128 7.58711 6.55586 7.76211 6.89336C7.93711 7.23086 8.17878 7.51211 8.48711 7.73711C7.87878 8.03711 7.41628 8.47461 7.09961 9.04961C6.78294 8.47461 6.32044 8.03711 5.71211 7.73711C6.02044 7.51211 6.26211 7.23086 6.43711 6.89336C6.61211 6.55586 6.69961 6.19128 6.69961 5.79961C6.69961 5.36628 6.59128 4.96628 6.37461 4.59961C6.15794 4.23294 5.86628 3.94128 5.49961 3.72461C5.13294 3.50794 4.73294 3.39961 4.29961 3.39961ZM4.29961 4.19961C4.59128 4.19961 4.86003 4.27044 5.10586 4.41211C5.35169 4.55378 5.54544 4.74753 5.68711 4.99336C5.82878 5.23919 5.89961 5.50794 5.89961 5.79961C5.89961 6.09128 5.82878 6.36003 5.68711 6.60586C5.54544 6.85169 5.35169 7.04544 5.10586 7.18711C4.86003 7.32878 4.59128 7.39961 4.29961 7.39961C4.00794 7.39961 3.73919 7.32878 3.49336 7.18711C3.24753 7.04544 3.05378 6.85169 2.91211 6.60586C2.77044 6.36003 2.69961 6.09128 2.69961 5.79961C2.69961 5.50794 2.77044 5.23919 2.91211 4.99336C3.05378 4.74753 3.24753 4.55378 3.49336 4.41211C3.73919 4.27044 4.00794 4.19961 4.29961 4.19961ZM9.89961 4.19961C10.1913 4.19961 10.46 4.27044 10.7059 4.41211C10.9517 4.55378 11.1454 4.74753 11.2871 4.99336C11.4288 5.23919 11.4996 5.50794 11.4996 5.79961C11.4996 6.09128 11.4288 6.36003 11.2871 6.60586C11.1454 6.85169 10.9517 7.04544 10.7059 7.18711C10.46 7.32878 10.1913 7.39961 9.89961 7.39961C9.60794 7.39961 9.33919 7.32878 9.09336 7.18711C8.84753 7.04544 8.65378 6.85169 8.51211 6.60586C8.37044 6.36003 8.29961 6.09128 8.29961 5.79961C8.29961 5.50794 8.37044 5.23919 8.51211 4.99336C8.65378 4.74753 8.84753 4.55378 9.09336 4.41211C9.33919 4.27044 9.60794 4.19961 9.89961 4.19961Z" fill="#6D6E6F"/>
</g>
<defs>
<clipPath id="clip0_293_11352">
<rect width="13" height="12.8" fill="white" transform="matrix(1 0 0 -1 0.599609 13.4004)"/>
</clipPath>
</defs>
</svg>
