<svg width="14" height="14" viewBox="0 0 14 14" fill="none" xmlns="http://www.w3.org/2000/svg">
<path d="M6.99483 1.80117C6.05389 1.80117 5.17956 2.03867 4.37185 2.51367C3.58912 2.972 2.96876 3.59284 2.51078 4.37617C2.03615 5.1845 1.79883 6.0595 1.79883 7.00117C1.79883 7.94284 2.03615 8.81784 2.51078 9.62617C2.96876 10.4095 3.58912 11.0303 4.37185 11.4887C5.17956 11.9637 6.05389 12.2012 6.99483 12.2012C7.93577 12.2012 8.8101 11.9637 9.61781 11.4887C10.4005 11.0303 11.0209 10.4095 11.4789 9.62617C11.9535 8.81784 12.1908 7.94284 12.1908 7.00117C12.1908 6.0595 11.9535 5.1845 11.4789 4.37617C11.0209 3.59284 10.4005 2.972 9.61781 2.51367C8.8101 2.03867 7.93577 1.80117 6.99483 1.80117ZM6.99483 2.60117C7.79421 2.60117 8.53531 2.80117 9.21812 3.20117C9.87594 3.59284 10.4005 4.11784 10.7919 4.77617C11.1916 5.4595 11.3914 6.20117 11.3914 7.00117C11.3914 7.5345 11.2998 8.05117 11.1167 8.55117C10.9335 9.02617 10.6753 9.4595 10.3423 9.85117L4.20947 3.58867C4.59251 3.272 5.02135 3.02825 5.49598 2.85742C5.97062 2.68659 6.47023 2.60117 6.99483 2.60117ZM3.64741 4.15117L9.78018 10.4137C9.39715 10.7303 8.96831 10.9741 8.49367 11.1449C8.01904 11.3158 7.51942 11.4012 6.99483 11.4012C6.19544 11.4012 5.45435 11.2012 4.77154 10.8012C4.11371 10.4095 3.58912 9.88451 3.19775 9.22617C2.79806 8.54284 2.59821 7.80117 2.59821 7.00117C2.59821 6.46784 2.68981 5.95117 2.873 5.45117C3.05619 4.97617 3.31433 4.54284 3.64741 4.15117Z" fill="#6D6E6F"/>
</svg>
