<?xml version="1.0" standalone="no"?>
<!DOCTYPE svg PUBLIC "-//W3C//DTD SVG 20010904//EN"
 "http://www.w3.org/TR/2001/REC-SVG-20010904/DTD/svg10.dtd">
<svg version="1.0" xmlns="http://www.w3.org/2000/svg"
 width="1184.000000pt" height="452.000000pt" viewBox="0 0 1184.000000 452.000000"
 preserveAspectRatio="xMidYMid meet">

<g transform="translate(0.000000,452.000000) scale(0.100000,-0.100000)"
fill="#000000" stroke="none">
<path d="M6085 4333 c-74 -39 -117 -102 -118 -174 -1 -47 2 -54 41 -91 23 -22
42 -48 42 -58 0 -12 -23 -36 -57 -62 -32 -24 -60 -45 -63 -48 -7 -8 -110 -74
-145 -94 -128 -71 -215 -127 -215 -136 0 -5 -12 -12 -27 -17 -19 -7 -22 -11
-12 -15 7 -3 25 -1 39 5 14 6 43 16 65 23 69 21 108 38 180 78 84 46 227 156
258 198 30 41 56 49 89 30 25 -15 29 -14 47 2 33 30 33 66 1 107 -28 35 -29
39 -20 100 12 81 3 135 -24 154 -26 19 -43 18 -81 -2z m33 -117 c13 -30 5 -66
-16 -66 -24 0 -61 40 -55 59 14 37 55 42 71 7z"/>
<path d="M9230 4300 c-8 -5 -78 -31 -155 -59 -77 -27 -165 -59 -195 -71 -30
-12 -73 -27 -95 -34 -88 -29 -234 -85 -253 -97 -28 -18 -46 -67 -31 -85 12
-15 -3 -20 264 88 88 35 198 79 245 97 198 75 226 87 242 104 21 20 22 28 6
49 -9 11 -18 13 -28 8z"/>
<path d="M4960 4229 c-30 -13 -149 -57 -290 -108 -286 -104 -386 -143 -402
-159 -25 -26 -34 -70 -14 -78 13 -5 207 67 343 127 23 11 47 19 53 19 7 0 24
6 38 14 24 13 72 32 243 95 63 24 93 50 87 78 -4 21 -24 26 -58 12z"/>
<path d="M7290 4105 c-103 -19 -340 -95 -425 -135 -11 -5 -45 -19 -75 -31 -95
-37 -242 -100 -318 -135 -40 -19 -75 -34 -77 -34 -7 0 -194 -89 -325 -155
-252 -126 -477 -269 -532 -337 -36 -44 -63 -150 -73 -290 l-7 -96 58 -59 c33
-32 90 -91 129 -131 113 -119 257 -224 595 -437 105 -66 153 -98 260 -177 67
-49 130 -114 130 -133 0 -29 -52 -68 -171 -126 -130 -65 -322 -149 -338 -149
-5 0 -25 -6 -43 -14 -18 -8 -71 -27 -118 -41 -96 -29 -105 -38 -144 -136 -34
-85 -33 -112 2 -138 15 -11 21 -21 15 -21 -15 0 -198 -87 -233 -111 -14 -9
-52 -34 -85 -55 -77 -49 -317 -233 -345 -265 -3 -3 -68 -61 -145 -129 -77 -68
-142 -127 -145 -130 -12 -15 -125 -103 -161 -125 -142 -90 -275 -83 -333 17
-62 109 -41 254 88 613 38 104 33 152 -8 82 -17 -27 -59 -116 -87 -182 -85
-200 -112 -419 -67 -547 54 -157 195 -264 316 -242 76 14 188 87 347 225 42
37 121 105 190 164 32 28 72 63 89 78 44 41 242 189 301 226 28 17 93 52 145
77 52 25 103 50 113 55 30 16 156 39 210 38 74 0 184 -23 242 -49 101 -45 94
-45 116 5 26 58 42 150 34 191 -5 32 -56 82 -157 159 -14 11 -29 29 -32 41 -5
18 6 26 91 65 188 86 286 157 328 240 64 124 70 254 18 360 -70 140 -162 216
-537 441 -103 63 -230 145 -282 183 -93 69 -111 96 -69 103 54 8 65 13 65 32
0 20 -54 61 -107 81 -55 21 -178 83 -185 93 -14 21 -7 31 50 71 107 75 190
124 392 233 149 80 431 216 595 287 61 26 128 55 150 65 333 146 617 212 665
155 22 -26 -24 -97 -181 -278 -100 -115 -210 -327 -169 -327 6 0 10 7 10 15 0
9 7 18 15 22 9 3 22 17 30 32 16 31 105 142 167 209 163 179 248 334 248 457
0 104 -65 132 -230 100z"/>
<path d="M8916 3901 c-3 -4 -12 -49 -20 -100 -14 -85 -14 -101 5 -224 11 -72
26 -193 34 -267 8 -74 17 -148 20 -165 3 -16 12 -259 20 -540 8 -280 20 -677
25 -882 12 -408 10 -434 -40 -476 -38 -32 -140 -65 -228 -73 -91 -9 -222 4
-228 21 -3 8 9 44 26 80 76 160 77 403 3 530 -54 92 -135 96 -223 12 -127
-120 -205 -270 -217 -412 -5 -56 7 -169 22 -206 15 -38 -110 -78 -187 -60 -69
16 -113 95 -110 197 2 59 -14 82 -45 66 -10 -6 -67 -58 -128 -115 -169 -162
-256 -206 -426 -214 -113 -6 -158 11 -202 74 -65 95 -74 157 -87 608 -22 781
-40 1127 -70 1341 -50 362 -122 499 -213 408 -24 -24 -87 -142 -87 -163 0 -4
-9 -37 -20 -71 -21 -66 -26 -145 -10 -155 5 -3 25 29 45 72 44 95 62 118 82
101 25 -20 39 -60 61 -168 37 -184 52 -318 62 -585 5 -143 12 -300 15 -350 3
-49 10 -245 15 -435 15 -501 39 -685 106 -791 74 -118 213 -170 359 -134 132
33 230 99 350 237 87 99 102 99 124 -4 22 -104 86 -162 190 -175 61 -7 164 23
247 73 76 46 83 47 155 23 53 -17 96 -22 249 -26 181 -5 187 -4 265 22 96 32
134 59 169 120 45 77 83 259 91 445 9 185 7 181 57 125 39 -44 124 -113 158
-128 63 -28 95 -56 108 -95 13 -39 42 -59 42 -28 0 35 36 57 125 77 137 30
271 83 480 190 354 179 361 183 490 239 28 11 99 29 158 39 60 10 113 23 118
28 22 22 77 188 66 199 -6 7 -93 21 -273 44 -69 9 -333 70 -428 99 -31 10 -86
25 -226 62 -253 66 -362 72 -463 25 -65 -31 -134 -97 -165 -158 -40 -81 -51
-250 -26 -390 10 -59 -17 -61 -72 -7 -54 53 -90 126 -110 222 -8 39 -17 74
-20 78 -11 18 -44 535 -53 821 -5 174 -11 321 -14 325 -3 4 -10 60 -16 123
-12 120 -30 224 -61 350 -10 41 -21 87 -24 103 -6 26 -38 38 -50 18z m819
-1696 c101 -14 167 -28 305 -66 172 -46 298 -87 313 -99 12 -11 -37 -43 -128
-82 -44 -20 -102 -46 -130 -58 -167 -75 -193 -86 -280 -115 -131 -44 -189 -56
-250 -53 -74 4 -65 -11 -166 270 l-20 58 22 40 c34 60 132 118 204 119 17 0
75 -6 130 -14z m-1340 -573 c32 -22 95 -161 95 -209 0 -40 -90 -125 -157 -148
-31 -11 -40 -10 -67 6 -57 33 -98 84 -99 122 -1 28 10 48 57 107 55 68 127
130 150 130 6 0 16 -4 21 -8z"/>
<path d="M2415 3804 c-37 -84 -48 -138 -35 -182 10 -36 29 -278 50 -617 13
-226 27 -419 45 -650 8 -104 20 -271 25 -370 6 -99 15 -234 20 -300 13 -160
12 -301 -1 -408 -6 -49 -8 -91 -6 -94 3 -3 13 0 23 5 33 18 86 191 105 343 12
99 6 434 -11 644 -5 61 -17 216 -25 345 -8 129 -17 242 -20 250 -2 8 -9 107
-15 220 -6 113 -15 238 -21 279 -11 91 -4 102 46 71 32 -20 38 -21 51 -8 13
13 11 27 -20 114 -19 54 -44 124 -56 154 -20 50 -40 105 -75 200 -7 19 -22 41
-34 48 -19 13 -22 11 -46 -44z"/>
<path d="M4704 3811 c-50 -31 -112 -101 -130 -148 -14 -36 -15 -48 -4 -73 7
-17 21 -35 31 -41 25 -13 24 -41 -1 -64 -21 -19 -27 -60 -10 -70 9 -6 267 162
302 197 19 19 25 78 9 78 -5 0 -36 -15 -68 -34 -68 -40 -76 -42 -126 -32 -28
5 -40 14 -48 34 -9 22 -7 29 13 44 27 20 60 23 90 7 18 -9 24 -8 35 7 16 21
17 68 3 95 -14 25 -56 25 -96 0z"/>
<path d="M300 3718 c-48 -50 -92 -161 -115 -283 -21 -110 -20 -118 5 -103 11
7 25 28 31 46 6 18 22 53 36 78 34 60 61 58 84 -7 25 -66 58 -260 69 -407 6
-70 15 -172 20 -227 5 -55 12 -179 15 -275 3 -96 10 -263 15 -370 6 -107 15
-312 20 -455 17 -430 47 -610 123 -726 63 -96 130 -155 246 -218 98 -52 105
-59 116 -96 l11 -40 25 25 c14 14 30 34 35 43 7 12 30 21 72 27 132 18 349
109 702 295 102 53 134 63 144 47 3 -5 11 -48 19 -98 18 -105 43 -168 95 -234
88 -111 189 -155 337 -146 52 3 115 14 150 26 193 67 436 237 671 470 143 142
188 204 226 311 25 71 28 94 28 202 0 139 -19 225 -78 345 -45 91 -131 188
-191 214 -152 65 -331 -87 -362 -308 -15 -105 5 -164 69 -207 46 -31 91 -40
270 -56 122 -11 172 -28 192 -66 20 -37 0 -70 -103 -173 -135 -133 -207 -193
-347 -287 -142 -95 -274 -164 -375 -197 -102 -33 -248 -31 -326 4 -96 44 -163
118 -187 210 -9 35 -8 40 15 58 32 25 149 60 222 67 104 8 92 -3 157 151 20
47 17 71 -8 82 -13 5 -75 14 -138 20 -210 20 -206 18 -201 106 3 55 -15 65
-28 16 -6 -21 -20 -47 -31 -57 -21 -19 -32 -19 -155 14 -155 41 -231 62 -285
77 -69 19 -198 50 -270 65 -80 16 -214 5 -270 -23 -69 -34 -143 -114 -170
-183 -21 -53 -24 -77 -24 -200 0 -77 4 -161 8 -187 8 -45 8 -47 -14 -41 -37
10 -127 106 -153 164 -64 146 -95 371 -107 783 -9 276 -14 402 -36 896 -3 69
-14 204 -25 300 -30 275 -66 432 -116 513 -20 31 -29 37 -58 37 -23 0 -41 -8
-55 -22z m2874 -1803 c44 -33 62 -63 48 -77 -6 -6 -51 -9 -106 -6 -88 3 -98 5
-122 29 -19 20 -24 32 -19 48 9 30 40 41 106 38 42 -2 64 -10 93 -32z m-1845
-475 c216 -44 517 -131 543 -157 19 -19 18 -20 -54 -52 -40 -18 -100 -45 -133
-61 -294 -135 -492 -200 -613 -200 -34 0 -52 25 -88 120 -73 198 -76 207 -60
243 16 39 57 78 111 105 53 28 165 29 294 2z"/>
<path d="M1705 3705 c-44 -18 -132 -54 -195 -80 -63 -26 -135 -56 -160 -65
-134 -53 -199 -89 -214 -119 -9 -16 -16 -35 -16 -42 0 -20 61 -4 154 40 48 23
92 41 98 41 6 0 19 6 27 13 9 7 43 24 76 36 33 13 79 32 102 42 23 11 48 19
55 19 7 0 22 7 32 15 11 8 26 15 34 15 47 0 122 61 122 99 0 21 -42 16 -115
-14z"/>
<path d="M8020 3605 c-14 -8 -32 -15 -40 -15 -8 0 -33 -9 -55 -20 -22 -11 -45
-19 -52 -20 -7 0 -27 -6 -45 -14 -18 -8 -130 -49 -248 -92 -118 -42 -220 -79
-227 -81 -6 -3 -19 -23 -28 -45 -13 -33 -14 -43 -3 -49 19 -12 24 -11 65 11
21 11 43 20 50 20 6 0 24 6 40 14 34 17 93 41 243 99 186 72 243 94 278 106
53 17 92 49 92 77 0 28 -29 32 -70 9z"/>
<path d="M10146 3611 c-3 -5 -18 -12 -33 -15 -16 -4 -52 -16 -80 -27 -29 -11
-79 -29 -110 -41 -32 -11 -72 -27 -90 -34 -17 -8 -35 -14 -39 -14 -5 0 -33
-10 -64 -21 -30 -12 -71 -27 -90 -34 -166 -60 -181 -68 -201 -107 -20 -39 -18
-58 4 -58 11 0 177 65 244 96 17 7 34 14 38 14 3 0 25 8 48 18 54 23 98 41
222 87 55 21 119 46 142 55 43 19 80 61 68 80 -8 12 -52 13 -59 1z"/>
<path d="M1715 3572 c-6 -4 -37 -18 -70 -31 -33 -12 -80 -31 -105 -41 -117
-47 -157 -63 -185 -75 -16 -8 -46 -20 -65 -28 -170 -72 -175 -76 -198 -130
-16 -37 5 -45 53 -23 19 9 50 22 68 30 17 8 67 31 110 50 42 20 80 36 82 36 3
0 24 9 48 19 23 11 71 32 107 46 36 14 79 32 95 39 17 7 45 19 63 26 31 12 72
57 72 79 0 13 -61 15 -75 3z"/>
<path d="M3780 3444 c-36 -14 -83 -31 -105 -38 -22 -8 -85 -31 -140 -51 -94
-35 -265 -97 -363 -132 -33 -12 -47 -24 -63 -54 -39 -78 -14 -77 176 5 87 38
477 188 522 201 26 7 73 60 73 81 0 20 -24 17 -100 -12z"/>
<path d="M4681 3326 c-10 -24 -26 -69 -35 -99 -14 -50 -15 -62 -2 -111 8 -31
22 -176 31 -324 17 -291 29 -478 45 -672 5 -69 8 -132 5 -141 -3 -9 -31 -37
-63 -62 -59 -46 -233 -215 -312 -302 -275 -305 -375 -395 -488 -441 -105 -43
-197 -22 -249 57 -27 41 -28 48 -28 158 1 115 10 160 60 301 88 244 97 280 75
280 -5 0 -10 -9 -10 -20 0 -10 -6 -23 -13 -27 -11 -7 -37 -56 -88 -168 -5 -11
-16 -40 -25 -65 -104 -296 -91 -498 41 -639 96 -102 211 -124 335 -64 91 45
138 88 371 343 230 252 363 380 396 380 25 0 24 4 44 -305 19 -310 23 -532 9
-623 -15 -96 -6 -119 28 -73 46 63 90 235 101 400 9 127 -1 450 -19 599 -10
92 -8 104 24 125 37 25 155 57 211 58 94 3 191 -46 231 -116 10 -16 16 -18 30
-9 28 16 43 70 43 154 1 65 -3 82 -25 116 -31 48 -91 87 -160 104 -43 11 -65
11 -140 -3 -49 -9 -118 -28 -152 -43 -60 -24 -64 -25 -77 -8 -12 17 -20 96
-46 459 -20 290 -22 335 -13 335 5 0 26 -13 46 -30 30 -25 38 -28 48 -15 15
18 7 56 -36 166 -19 47 -34 89 -34 94 0 4 -7 21 -15 38 -8 18 -28 70 -45 117
-30 80 -53 120 -71 120 -4 0 -17 -20 -28 -44z"/>
<path d="M11535 3214 c-22 -8 -58 -21 -80 -29 -192 -67 -533 -193 -564 -210
-33 -17 -51 -43 -51 -74 0 -26 15 -34 37 -22 17 10 389 157 523 208 181 68
198 76 208 98 7 16 7 26 -1 34 -14 14 -23 13 -72 -5z"/>
<path d="M9858 2956 c-47 -94 -46 -97 22 -142 19 -12 58 -39 85 -58 47 -32 51
-33 69 -18 10 9 25 31 33 47 8 17 21 41 28 55 21 36 18 74 -7 97 -42 37 -149
103 -169 103 -14 0 -30 -22 -61 -84z"/>
<path d="M8453 2488 c-10 -18 -24 -45 -32 -59 -17 -34 -32 -30 -118 28 -91 60
-108 57 -150 -27 -50 -101 -49 -104 74 -188 80 -55 96 -54 127 6 41 80 42 81
142 12 l89 -60 23 27 c33 40 72 121 72 148 0 18 -20 38 -82 84 -46 33 -93 61
-105 61 -13 0 -28 -11 -40 -32z"/>
<path d="M4137 2499 c-22 -13 -79 -137 -75 -163 4 -25 154 -135 185 -136 15 0
29 14 51 53 63 112 58 130 -52 202 -46 30 -86 55 -88 55 -1 0 -11 -5 -21 -11z"/>
<path d="M7301 2258 c-31 -68 -36 -86 -27 -100 7 -9 50 -42 96 -74 63 -42 88
-54 99 -47 27 17 74 104 78 146 5 46 4 48 -112 124 -77 51 -89 47 -134 -49z"/>
<path d="M11178 2167 c-86 -27 -161 -106 -210 -219 -32 -74 -32 -199 0 -250
44 -71 99 -90 310 -108 126 -10 150 -17 190 -53 39 -36 29 -59 -72 -164 -211
-221 -509 -424 -733 -500 -136 -46 -303 -34 -397 31 -111 75 -160 214 -136
381 21 137 48 272 61 297 5 10 9 28 8 40 l0 23 -9 -22 c-5 -13 -14 -23 -19
-23 -5 0 -15 -17 -21 -37 -6 -21 -16 -47 -21 -58 -19 -42 -50 -184 -60 -280
-22 -202 4 -349 79 -460 59 -86 111 -126 203 -155 160 -52 342 -1 594 164 182
121 500 416 557 518 60 108 73 163 73 313 -1 126 -3 149 -29 225 -57 175 -164
315 -259 338 -54 14 -61 14 -109 -1z m89 -250 c42 -29 67 -63 58 -77 -8 -13
-164 -13 -201 0 -56 20 -68 80 -21 101 40 17 123 5 164 -24z"/>
<path d="M1597 568 c-20 -40 -38 -81 -39 -92 -2 -13 19 -34 72 -72 108 -78
117 -82 140 -58 48 49 83 149 62 180 -14 21 -160 114 -180 114 -14 0 -29 -20
-55 -72z"/>
</g>
</svg>
