<svg width="20" height="24" viewBox="0 0 20 24" fill="none" xmlns="http://www.w3.org/2000/svg">
<g clip-path="url(#clip0_167_10936)">
<path d="M19.3 4.71041C19.2075 4.61771 19.0976 4.54416 18.9766 4.49398C18.8556 4.4438 18.726 4.41797 18.595 4.41797C18.464 4.41797 18.3343 4.4438 18.2134 4.49398C18.0924 4.54416 17.9825 4.61771 17.89 4.71041L7 15.5904V10.0004C7 9.45041 6.55 9.00041 6 9.00041C5.45 9.00041 5 9.45041 5 10.0004V18.0004C5 18.5504 5.45 19.0004 6 19.0004H14C14.55 19.0004 15 18.5504 15 18.0004C15 17.4504 14.55 17.0004 14 17.0004H8.41L19.3 6.11041C19.68 5.73041 19.68 5.09041 19.3 4.71041Z" fill="#FD2C79"/>
</g>
<defs>
<clipPath id="clip0_167_10936">
<rect width="20" height="24" fill="white"/>
</clipPath>
</defs>
</svg>
