<svg width="150" height="150" viewBox="0 0 114 114" fill="none" xmlns="http://www.w3.org/2000/svg">
<g filter="url(#filter0_d_295_9971)">
<circle cx="57" cy="57" r="40" fill="#F9F9F9"/>
</g>
<path d="M51 51C51.5304 51 52.0391 51.2107 52.4142 51.5858C52.7893 51.9609 53 52.4696 53 53C53 53.5304 52.7893 54.0391 52.4142 54.4142C52.0391 54.7893 51.5304 55 51 55C50.4696 55 49.9609 54.7893 49.5858 54.4142C49.2107 54.0391 49 53.5304 49 53C49 52.4696 49.2107 51.9609 49.5858 51.5858C49.9609 51.2107 50.4696 51 51 51ZM51 51V43M51 43C50.4696 43 49.9609 42.7893 49.5858 42.4142C49.2107 42.0391 49 41.5304 49 41C49 40.4696 49.2107 39.9609 49.5858 39.5858C49.9609 39.2107 50.4696 39 51 39C51.5304 39 52.0391 39.2107 52.4142 39.5858C52.7893 39.9609 53 40.4696 53 41C53 41.5304 52.7893 42.0391 52.4142 42.4142C52.0391 42.7893 51.5304 43 51 43ZM63 46H63.01M63 41H63.01M61 53C61 53.5304 61.2107 54.0391 61.5858 54.4142C61.9609 54.7893 62.4696 55 63 55C63.5304 55 64.0391 54.7893 64.4142 54.4142C64.7893 54.0391 65 53.5304 65 53C65 52.4696 64.7893 51.9609 64.4142 51.5858C64.0391 51.2107 63.5304 51 63 51C62.4696 51 61.9609 51.2107 61.5858 51.5858C61.2107 51.9609 61 52.4696 61 53Z" stroke="#FD2C79" stroke-width="2" stroke-linecap="round" stroke-linejoin="round"/>
<path d="M38.492 71V63.95H41.342C42.102 63.95 42.6853 64.1267 43.092 64.48C43.4987 64.8267 43.702 65.3267 43.702 65.98C43.702 66.38 43.6187 66.7233 43.452 67.01C43.2853 67.2967 43.0453 67.52 42.732 67.68C42.4253 67.84 42.0553 67.9333 41.622 67.96L41.692 67.88L41.842 67.89C42.0553 67.9033 42.242 67.9733 42.402 68.1C42.562 68.22 42.7153 68.4133 42.862 68.68L44.102 71H43.162L41.962 68.77C41.862 68.5767 41.752 68.43 41.632 68.33C41.512 68.2233 41.372 68.15 41.212 68.11C41.0587 68.07 40.872 68.05 40.652 68.05H39.352V71H38.492ZM39.352 67.35H41.252C41.792 67.35 42.192 67.2367 42.452 67.01C42.7187 66.7833 42.852 66.4467 42.852 66C42.852 65.5533 42.7187 65.22 42.452 65C42.1853 64.78 41.7787 64.67 41.232 64.67H39.352V67.35ZM47.4782 71.09C46.9448 71.09 46.4848 70.99 46.0982 70.79C45.7115 70.5833 45.4148 70.29 45.2082 69.91C45.0015 69.53 44.8982 69.0767 44.8982 68.55C44.8982 68.05 44.9948 67.61 45.1882 67.23C45.3882 66.85 45.6682 66.5533 46.0282 66.34C46.3882 66.12 46.8082 66.01 47.2882 66.01C47.7548 66.01 48.1482 66.11 48.4682 66.31C48.7948 66.51 49.0448 66.7933 49.2182 67.16C49.3915 67.52 49.4782 67.9533 49.4782 68.46V68.76H45.5382V68.18H48.9182L48.7482 68.34C48.7482 67.8067 48.6248 67.3933 48.3782 67.1C48.1315 66.8 47.7715 66.65 47.2982 66.65C46.9715 66.65 46.6882 66.7267 46.4482 66.88C46.2148 67.0267 46.0348 67.2367 45.9082 67.51C45.7815 67.7767 45.7182 68.0933 45.7182 68.46V68.54C45.7182 68.9467 45.7848 69.2867 45.9182 69.56C46.0582 69.8333 46.2615 70.0433 46.5282 70.19C46.7948 70.33 47.1148 70.4 47.4882 70.4C47.7682 70.4 48.0448 70.36 48.3182 70.28C48.5915 70.1933 48.8515 70.05 49.0982 69.85L49.3882 70.45C49.1482 70.6567 48.8548 70.8167 48.5082 70.93C48.1682 71.0367 47.8248 71.09 47.4782 71.09ZM54.3939 72.8V69.92H54.4539C54.3339 70.2733 54.1172 70.5567 53.8039 70.77C53.4972 70.9833 53.1272 71.09 52.6939 71.09C52.2472 71.09 51.8572 70.9867 51.5239 70.78C51.1972 70.5667 50.9439 70.27 50.7639 69.89C50.5839 69.5033 50.4939 69.0567 50.4939 68.55C50.4939 68.03 50.5839 67.5833 50.7639 67.21C50.9439 66.83 51.2005 66.5367 51.5339 66.33C51.8672 66.1167 52.2572 66.01 52.7039 66.01C53.1372 66.01 53.5105 66.1167 53.8239 66.33C54.1439 66.5433 54.3639 66.84 54.4839 67.22H54.4439V66.1H55.2439V72.8H54.3939ZM52.8839 70.4C53.3505 70.4 53.7205 70.2367 53.9939 69.91C54.2739 69.5833 54.4139 69.1267 54.4139 68.54C54.4139 67.96 54.2739 67.51 53.9939 67.19C53.7205 66.8633 53.3472 66.7 52.8739 66.7C52.4072 66.7 52.0339 66.8633 51.7539 67.19C51.4805 67.51 51.3439 67.96 51.3439 68.54C51.3439 69.1267 51.4805 69.5833 51.7539 69.91C52.0339 70.2367 52.4105 70.4 52.8839 70.4ZM58.6871 71.09C58.2871 71.09 57.9505 71.0167 57.6771 70.87C57.4105 70.7233 57.2105 70.5067 57.0771 70.22C56.9438 69.9267 56.8771 69.5667 56.8771 69.14V66.1H57.7271V69.11C57.7271 69.3833 57.7638 69.6167 57.8371 69.81C57.9171 69.9967 58.0405 70.14 58.2071 70.24C58.3738 70.3333 58.5905 70.38 58.8571 70.38C59.1371 70.38 59.3838 70.3133 59.5971 70.18C59.8171 70.0467 59.9871 69.8667 60.1071 69.64C60.2338 69.4133 60.2971 69.1567 60.2971 68.87V66.1H61.1471V71H60.3471V69.9H60.4071C60.2605 70.28 60.0371 70.5733 59.7371 70.78C59.4438 70.9867 59.0938 71.09 58.6871 71.09ZM65.0856 71.09C64.5523 71.09 64.0923 70.99 63.7056 70.79C63.3189 70.5833 63.0223 70.29 62.8156 69.91C62.6089 69.53 62.5056 69.0767 62.5056 68.55C62.5056 68.05 62.6023 67.61 62.7956 67.23C62.9956 66.85 63.2756 66.5533 63.6356 66.34C63.9956 66.12 64.4156 66.01 64.8956 66.01C65.3623 66.01 65.7556 66.11 66.0756 66.31C66.4023 66.51 66.6523 66.7933 66.8256 67.16C66.9989 67.52 67.0856 67.9533 67.0856 68.46V68.76H63.1456V68.18H66.5256L66.3556 68.34C66.3556 67.8067 66.2323 67.3933 65.9856 67.1C65.7389 66.8 65.3789 66.65 64.9056 66.65C64.5789 66.65 64.2956 66.7267 64.0556 66.88C63.8223 67.0267 63.6423 67.2367 63.5156 67.51C63.3889 67.7767 63.3256 68.0933 63.3256 68.46V68.54C63.3256 68.9467 63.3923 69.2867 63.5256 69.56C63.6656 69.8333 63.8689 70.0433 64.1356 70.19C64.4023 70.33 64.7223 70.4 65.0956 70.4C65.3756 70.4 65.6523 70.36 65.9256 70.28C66.1989 70.1933 66.4589 70.05 66.7056 69.85L66.9956 70.45C66.7556 70.6567 66.4623 70.8167 66.1156 70.93C65.7756 71.0367 65.4323 71.09 65.0856 71.09ZM70.1213 71.09C69.8613 71.09 69.6046 71.0633 69.3513 71.01C69.1046 70.9633 68.8746 70.8967 68.6613 70.81C68.448 70.7167 68.2646 70.6067 68.1113 70.48L68.3813 69.87C68.548 69.9967 68.728 70.1033 68.9213 70.19C69.1146 70.27 69.3146 70.33 69.5213 70.37C69.728 70.4033 69.9313 70.42 70.1313 70.42C70.5246 70.42 70.8246 70.3567 71.0313 70.23C71.2446 70.0967 71.3513 69.9133 71.3513 69.68C71.3513 69.4867 71.2846 69.3367 71.1513 69.23C71.0246 69.1233 70.818 69.04 70.5313 68.98L69.5613 68.8C69.128 68.7133 68.8013 68.56 68.5813 68.34C68.3613 68.1133 68.2513 67.8233 68.2513 67.47C68.2513 67.1767 68.3313 66.92 68.4913 66.7C68.6513 66.48 68.8813 66.31 69.1813 66.19C69.4813 66.07 69.8313 66.01 70.2313 66.01C70.458 66.01 70.6846 66.0333 70.9113 66.08C71.138 66.1267 71.348 66.1967 71.5413 66.29C71.7413 66.3767 71.908 66.4867 72.0413 66.62L71.7613 67.22C71.628 67.1 71.4746 67 71.3013 66.92C71.1346 66.8333 70.958 66.77 70.7713 66.73C70.5846 66.69 70.4013 66.67 70.2213 66.67C69.848 66.67 69.558 66.74 69.3513 66.88C69.1446 67.02 69.0413 67.2067 69.0413 67.44C69.0413 67.6333 69.1013 67.7867 69.2213 67.9C69.348 68.0067 69.5446 68.0867 69.8113 68.14L70.7613 68.33C71.228 68.4233 71.5746 68.5767 71.8013 68.79C72.0346 68.9967 72.1513 69.28 72.1513 69.64C72.1513 69.94 72.0646 70.2 71.8913 70.42C71.7246 70.6333 71.4913 70.8 71.1913 70.92C70.8913 71.0333 70.5346 71.09 70.1213 71.09ZM75.4601 71.09C74.8735 71.09 74.4335 70.9367 74.1401 70.63C73.8468 70.3167 73.7001 69.8733 73.7001 69.3V66.78H72.7201V66.1H73.7201V64.62H74.5501V66.1H76.2101V66.78H74.5501V69.22C74.5501 69.6 74.6301 69.8867 74.7901 70.08C74.9568 70.2667 75.2201 70.36 75.5801 70.36C75.7001 70.36 75.8201 70.3467 75.9401 70.32C76.0601 70.2933 76.1701 70.26 76.2701 70.22L76.4201 70.88C76.3068 70.94 76.1601 70.99 75.9801 71.03C75.8068 71.07 75.6335 71.09 75.4601 71.09ZM43.9803 84V76.95H46.8303C47.3369 76.95 47.7669 77.0333 48.1203 77.2C48.4736 77.3667 48.7403 77.6067 48.9203 77.92C49.1069 78.2333 49.2003 78.6167 49.2003 79.07C49.2003 79.5167 49.1069 79.9 48.9203 80.22C48.7336 80.5333 48.4636 80.7767 48.1103 80.95C47.7636 81.1167 47.3369 81.2 46.8303 81.2H44.8403V84H43.9803ZM44.8403 80.48H46.7203C47.2536 80.48 47.6569 80.3633 47.9303 80.13C48.2036 79.89 48.3403 79.5367 48.3403 79.07C48.3403 78.6033 48.2036 78.2533 47.9303 78.02C47.6569 77.7867 47.2536 77.67 46.7203 77.67H44.8403V80.48ZM50.4518 84V76.95H51.2918V80.16H51.2218C51.3685 79.7933 51.5985 79.51 51.9118 79.31C52.2318 79.11 52.5952 79.01 53.0018 79.01C53.4018 79.01 53.7318 79.0833 53.9918 79.23C54.2585 79.37 54.4585 79.5867 54.5918 79.88C54.7252 80.1667 54.7918 80.5267 54.7918 80.96V84H53.9418V81.01C53.9418 80.73 53.9018 80.4933 53.8218 80.3C53.7485 80.1067 53.6285 79.9633 53.4618 79.87C53.2952 79.77 53.0785 79.72 52.8118 79.72C52.5118 79.72 52.2485 79.7867 52.0218 79.92C51.7952 80.0467 51.6185 80.2233 51.4918 80.45C51.3652 80.6767 51.3018 80.9367 51.3018 81.23V84H50.4518ZM58.4989 84.09C58.0122 84.09 57.5889 83.9867 57.2289 83.78C56.8755 83.5667 56.6022 83.27 56.4089 82.89C56.2155 82.51 56.1189 82.06 56.1189 81.54C56.1189 81.0267 56.2155 80.5833 56.4089 80.21C56.6022 79.83 56.8755 79.5367 57.2289 79.33C57.5889 79.1167 58.0122 79.01 58.4989 79.01C58.9855 79.01 59.4055 79.1167 59.7589 79.33C60.1189 79.5367 60.3955 79.83 60.5889 80.21C60.7822 80.5833 60.8789 81.0267 60.8789 81.54C60.8789 82.06 60.7822 82.51 60.5889 82.89C60.3955 83.27 60.1189 83.5667 59.7589 83.78C59.4055 83.9867 58.9855 84.09 58.4989 84.09ZM58.4989 83.39C58.9722 83.39 59.3455 83.2267 59.6189 82.9C59.8922 82.5733 60.0289 82.12 60.0289 81.54C60.0289 80.96 59.8922 80.51 59.6189 80.19C59.3455 79.87 58.9722 79.71 58.4989 79.71C58.0255 79.71 57.6522 79.87 57.3789 80.19C57.1055 80.51 56.9689 80.96 56.9689 81.54C56.9689 82.12 57.1055 82.5733 57.3789 82.9C57.6589 83.2267 58.0322 83.39 58.4989 83.39ZM64.2004 84.09C63.6137 84.09 63.1737 83.9367 62.8804 83.63C62.587 83.3167 62.4404 82.8733 62.4404 82.3V79.78H61.4604V79.1H62.4604V77.62H63.2904V79.1H64.9504V79.78H63.2904V82.22C63.2904 82.6 63.3704 82.8867 63.5304 83.08C63.697 83.2667 63.9604 83.36 64.3204 83.36C64.4404 83.36 64.5604 83.3467 64.6804 83.32C64.8004 83.2933 64.9104 83.26 65.0104 83.22L65.1604 83.88C65.047 83.94 64.9004 83.99 64.7204 84.03C64.547 84.07 64.3737 84.09 64.2004 84.09ZM68.0594 84.09C67.5727 84.09 67.1494 83.9867 66.7894 83.78C66.4361 83.5667 66.1627 83.27 65.9694 82.89C65.7761 82.51 65.6794 82.06 65.6794 81.54C65.6794 81.0267 65.7761 80.5833 65.9694 80.21C66.1627 79.83 66.4361 79.5367 66.7894 79.33C67.1494 79.1167 67.5727 79.01 68.0594 79.01C68.5461 79.01 68.9661 79.1167 69.3194 79.33C69.6794 79.5367 69.9561 79.83 70.1494 80.21C70.3427 80.5833 70.4394 81.0267 70.4394 81.54C70.4394 82.06 70.3427 82.51 70.1494 82.89C69.9561 83.27 69.6794 83.5667 69.3194 83.78C68.9661 83.9867 68.5461 84.09 68.0594 84.09ZM68.0594 83.39C68.5327 83.39 68.9061 83.2267 69.1794 82.9C69.4527 82.5733 69.5894 82.12 69.5894 81.54C69.5894 80.96 69.4527 80.51 69.1794 80.19C68.9061 79.87 68.5327 79.71 68.0594 79.71C67.5861 79.71 67.2127 79.87 66.9394 80.19C66.6661 80.51 66.5294 80.96 66.5294 81.54C66.5294 82.12 66.6661 82.5733 66.9394 82.9C67.2194 83.2267 67.5927 83.39 68.0594 83.39Z" fill="black"/>
<defs>
<filter id="filter0_d_295_9971" x="0.3" y="0.3" width="113.4" height="113.4" filterUnits="userSpaceOnUse" color-interpolation-filters="sRGB">
<feFlood flood-opacity="0" result="BackgroundImageFix"/>
<feColorMatrix in="SourceAlpha" type="matrix" values="0 0 0 0 0 0 0 0 0 0 0 0 0 0 0 0 0 0 127 0" result="hardAlpha"/>
<feMorphology radius="7" operator="dilate" in="SourceAlpha" result="effect1_dropShadow_295_9971"/>
<feOffset/>
<feGaussianBlur stdDeviation="4.85"/>
<feComposite in2="hardAlpha" operator="out"/>
<feColorMatrix type="matrix" values="0 0 0 0 0.992157 0 0 0 0 0.172549 0 0 0 0 0.47451 0 0 0 1 0"/>
<feBlend mode="normal" in2="BackgroundImageFix" result="effect1_dropShadow_295_9971"/>
<feBlend mode="normal" in="SourceGraphic" in2="effect1_dropShadow_295_9971" result="shape"/>
</filter>
</defs>
</svg>
