<svg width="20" height="20" viewBox="0 0 20 20" fill="none" xmlns="http://www.w3.org/2000/svg">
<path d="M19.0179 4.14297C19.0221 4.11395 19.0221 4.08449 19.0179 4.05547C19.0179 4.05547 19.0179 4.03984 19.0179 4.03047C19.0087 4.00948 18.9972 3.98956 18.9836 3.97109L18.9492 3.93672L18.9242 3.91172H18.9054L18.8617 3.88984L18.8086 3.87109H18.7617H18.6679L1.20545 7.65234C1.14305 7.66625 1.08643 7.69896 1.0432 7.74606C0.999979 7.79315 0.972238 7.85237 0.963723 7.91573C0.955207 7.97908 0.966326 8.04353 0.99558 8.10037C1.02483 8.1572 1.07081 8.2037 1.12732 8.23359L5.98982 10.768L6.7742 15.6836C6.77921 15.714 6.78869 15.7435 6.80232 15.7711V15.7898C6.81815 15.8177 6.83817 15.843 6.8617 15.8648C6.88261 15.8824 6.90572 15.8971 6.93045 15.9086H6.9492H6.96795C6.99902 15.9133 7.03062 15.9133 7.0617 15.9086C7.10097 15.9265 7.14354 15.9361 7.1867 15.9367H7.21482L7.25857 15.918L10.6711 13.818L14.1804 16.1242C14.2198 16.1502 14.2645 16.167 14.3112 16.1732C14.358 16.1795 14.4055 16.1751 14.4503 16.1603C14.4951 16.1456 14.536 16.1209 14.5699 16.0882C14.6038 16.0554 14.6298 16.0154 14.6461 15.9711L19.0211 4.27734C19.0327 4.24526 19.0391 4.21148 19.0398 4.17734C19.0398 4.17734 19.0179 4.14922 19.0179 4.14297ZM8.08045 11.6148C8.06336 11.6278 8.04766 11.6424 8.03357 11.6586C8.01025 11.6875 7.99226 11.7203 7.98045 11.7555L7.18045 14.2555L6.61795 10.7367L15.4086 6.20547L8.08045 11.6148ZM16.4523 4.96484L6.2742 10.2117L2.1867 8.07734L16.4523 4.96484ZM7.6367 14.9273L8.45545 12.3523L10.0836 13.4367L7.6367 14.9273ZM14.1992 15.3711L10.8617 13.1836L8.84295 11.8586L18.0461 5.03047L14.1992 15.3711Z" fill="#0ABB75"/>
</svg>
