<svg width="13" height="14" viewBox="0 0 13 14" fill="none" xmlns="http://www.w3.org/2000/svg">
<path d="M6.49922 3.00195C5.63255 3.00195 4.82422 3.22279 4.07422 3.66445C3.34922 4.08112 2.77839 4.65195 2.36172 5.37695C1.92005 6.12695 1.69922 6.93529 1.69922 7.80195C1.69922 8.36862 1.79505 8.91862 1.98672 9.45195C2.17839 9.96029 2.44922 10.427 2.79922 10.852L2.91172 11.002H10.0867L10.1992 10.852C10.5492 10.427 10.8201 9.96029 11.0117 9.45195C11.2034 8.91862 11.2992 8.36862 11.2992 7.80195C11.2992 6.93529 11.0826 6.12695 10.6492 5.37695C10.2242 4.65195 9.64922 4.08112 8.92422 3.66445C8.17422 3.22279 7.36589 3.00195 6.49922 3.00195ZM6.49922 3.80195C7.22422 3.80195 7.89922 3.98529 8.52422 4.35195C9.12422 4.70195 9.59922 5.17695 9.94922 5.77695C10.3159 6.40195 10.4992 7.07695 10.4992 7.80195C10.4992 8.24362 10.4242 8.67279 10.2742 9.08945C10.1326 9.48945 9.93255 9.86029 9.67422 10.202H3.32422C3.06589 9.86029 2.86589 9.48945 2.72422 9.08945C2.57422 8.67279 2.49922 8.24362 2.49922 7.80195C2.49922 7.07695 2.68255 6.40195 3.04922 5.77695C3.39922 5.17695 3.87422 4.70195 4.47422 4.35195C5.09922 3.98529 5.77422 3.80195 6.49922 3.80195ZM6.49922 4.20195C6.39089 4.20195 6.29714 4.24154 6.21797 4.3207C6.1388 4.39987 6.09922 4.49362 6.09922 4.60195C6.09922 4.71029 6.1388 4.80404 6.21797 4.8832C6.29714 4.96237 6.39089 5.00195 6.49922 5.00195C6.60755 5.00195 6.7013 4.96237 6.78047 4.8832C6.85964 4.80404 6.89922 4.71029 6.89922 4.60195C6.89922 4.49362 6.85964 4.39987 6.78047 4.3207C6.7013 4.24154 6.60755 4.20195 6.49922 4.20195ZM4.89922 4.62695C4.79089 4.62695 4.69714 4.66654 4.61797 4.7457C4.5388 4.82487 4.49922 4.91862 4.49922 5.02695C4.49922 5.13529 4.5388 5.22904 4.61797 5.3082C4.69714 5.38737 4.79089 5.42695 4.89922 5.42695C5.00755 5.42695 5.1013 5.38737 5.18047 5.3082C5.25964 5.22904 5.29922 5.13529 5.29922 5.02695C5.29922 4.91862 5.25964 4.82487 5.18047 4.7457C5.1013 4.66654 5.00755 4.62695 4.89922 4.62695ZM8.09922 4.62695C7.99089 4.62695 7.89714 4.66654 7.81797 4.7457C7.7388 4.82487 7.69922 4.91862 7.69922 5.02695C7.69922 5.13529 7.7388 5.22904 7.81797 5.3082C7.89714 5.38737 7.99089 5.42695 8.09922 5.42695C8.20755 5.42695 8.3013 5.38737 8.38047 5.3082C8.45964 5.22904 8.49922 5.13529 8.49922 5.02695C8.49922 4.91862 8.45964 4.82487 8.38047 4.7457C8.3013 4.66654 8.20755 4.62695 8.09922 4.62695ZM3.72422 5.80195C3.61589 5.80195 3.52214 5.84154 3.44297 5.9207C3.3638 5.99987 3.32422 6.09362 3.32422 6.20195C3.32422 6.31029 3.3638 6.40404 3.44297 6.4832C3.52214 6.56237 3.61589 6.60195 3.72422 6.60195C3.83255 6.60195 3.9263 6.56237 4.00547 6.4832C4.08464 6.40404 4.12422 6.31029 4.12422 6.20195C4.12422 6.09362 4.08464 5.99987 4.00547 5.9207C3.9263 5.84154 3.83255 5.80195 3.72422 5.80195ZM9.16172 5.81445L6.89922 7.11445C6.77422 7.03945 6.64089 7.00195 6.49922 7.00195C6.27422 7.00195 6.08464 7.07904 5.93047 7.2332C5.7763 7.38737 5.69922 7.57695 5.69922 7.80195C5.69922 8.02695 5.7763 8.21654 5.93047 8.3707C6.08464 8.52487 6.27214 8.60195 6.49297 8.60195C6.7138 8.60195 6.90339 8.52487 7.06172 8.3707C7.22005 8.21654 7.29922 8.03112 7.29922 7.81445V7.80195L9.56172 6.51445L9.16172 5.81445ZM3.29922 7.40195C3.19089 7.40195 3.09714 7.44154 3.01797 7.5207C2.9388 7.59987 2.89922 7.69362 2.89922 7.80195C2.89922 7.91029 2.9388 8.00404 3.01797 8.0832C3.09714 8.16237 3.19089 8.20195 3.29922 8.20195C3.40755 8.20195 3.5013 8.16237 3.58047 8.0832C3.65964 8.00404 3.69922 7.91029 3.69922 7.80195C3.69922 7.69362 3.65964 7.59987 3.58047 7.5207C3.5013 7.44154 3.40755 7.40195 3.29922 7.40195ZM9.69922 7.40195C9.59089 7.40195 9.49714 7.44154 9.41797 7.5207C9.3388 7.59987 9.29922 7.69362 9.29922 7.80195C9.29922 7.91029 9.3388 8.00404 9.41797 8.0832C9.49714 8.16237 9.59089 8.20195 9.69922 8.20195C9.80755 8.20195 9.9013 8.16237 9.98047 8.0832C10.0596 8.00404 10.0992 7.91029 10.0992 7.80195C10.0992 7.69362 10.0596 7.59987 9.98047 7.5207C9.9013 7.44154 9.80755 7.40195 9.69922 7.40195ZM3.72422 9.00195C3.61589 9.00195 3.52214 9.04154 3.44297 9.1207C3.3638 9.19987 3.32422 9.29362 3.32422 9.40195C3.32422 9.51029 3.3638 9.60404 3.44297 9.6832C3.52214 9.76237 3.61589 9.80195 3.72422 9.80195C3.83255 9.80195 3.9263 9.76237 4.00547 9.6832C4.08464 9.60404 4.12422 9.51029 4.12422 9.40195C4.12422 9.29362 4.08464 9.19987 4.00547 9.1207C3.9263 9.04154 3.83255 9.00195 3.72422 9.00195ZM9.27422 9.00195C9.16589 9.00195 9.07214 9.04154 8.99297 9.1207C8.9138 9.19987 8.87422 9.29362 8.87422 9.40195C8.87422 9.51029 8.9138 9.60404 8.99297 9.6832C9.07214 9.76237 9.16589 9.80195 9.27422 9.80195C9.38255 9.80195 9.4763 9.76237 9.55547 9.6832C9.63464 9.60404 9.67422 9.51029 9.67422 9.40195C9.67422 9.29362 9.63464 9.19987 9.55547 9.1207C9.4763 9.04154 9.38255 9.00195 9.27422 9.00195Z" fill="#6D6E6F"/>
</svg>
