<svg width="50" height="50" viewBox="0 0 50 50" fill="none" xmlns="http://www.w3.org/2000/svg">
 <g transform="rotate(270 25 25)">

<circle cx="25" cy="25" r="25" fill="#FF28A0"/>
<circle cx="25" cy="25" r="25" fill="#FF28A0"/>
<path d="M32.3536 32.3535C30.8643 33.8422 28.9581 34.8438 26.8871 35.2257C24.8162 35.6076 22.6782 35.3518 20.7558 34.4922C18.8334 33.6326 17.2172 32.2096 16.1211 30.4116C15.0249 28.6135 14.5005 26.5251 14.617 24.4225C14.7336 22.3198 15.4857 20.3022 16.7739 18.6363C18.0621 16.9704 19.8256 15.7348 21.8312 15.093C23.8369 14.4511 25.9901 14.4333 28.0061 15.0418C30.0221 15.6502 31.8059 16.8564 33.1216 18.5007C31.9048 17.5538 30.4466 16.9675 28.913 16.8085C27.3794 16.6496 25.8319 16.9244 24.4468 17.6016C23.0617 18.2788 21.8945 19.3313 21.0781 20.6392C20.2617 21.9472 19.8288 23.458 19.8288 24.9999C19.8288 26.5417 20.2617 28.0525 21.0781 29.3605C21.8945 30.6684 23.0617 31.7209 24.4468 32.3981C25.8319 33.0753 27.3794 33.3501 28.913 33.1912C30.4466 33.0322 31.9048 32.446 33.1216 31.4991C32.8804 31.7968 32.624 32.082 32.3536 32.3535ZM29.16 23.3999H25.8L28.52 25.7999L27.4 29.7999L30.6 27.3999L33.8 29.7999L32.68 25.7999L35.4 23.3999H32.04L30.6 20.1999L29.16 23.3999Z" fill="white"/>
</g>
</svg>
