<svg width="50" height="50" viewBox="0 0 50 50" fill="none" xmlns="http://www.w3.org/2000/svg">
 <g transform="rotate(270 25 25)">
<circle cx="25" cy="25" r="25" fill="#FF28A0"/>
<circle cx="25" cy="25" r="25" fill="#FF28A0"/>
<path d="M34.71 21.7102C35.96 20.4602 35.39 19.0002 34.71 18.2902L31.71 15.2902C30.45 14.0402 29 14.6102 28.29 15.2902L26.59 17.0002H24C22.1 17.0002 21 18.0002 20.44 19.1502L16 23.5902V27.5902L15.29 28.2902C14.04 29.5502 14.61 31.0002 15.29 31.7102L18.29 34.7102C18.83 35.2502 19.41 35.4502 19.96 35.4502C20.67 35.4502 21.32 35.1002 21.71 34.7102L24.41 32.0002H28C29.7 32.0002 30.56 30.9402 30.87 29.9002C32 29.6002 32.62 28.7402 32.87 27.9002C34.42 27.5002 35 26.0302 35 25.0002V22.0002H34.41L34.71 21.7102ZM33 25.0002C33 25.4502 32.81 26.0002 32 26.0002H31V27.0002C31 27.4502 30.81 28.0002 30 28.0002H29V29.0002C29 29.4502 28.81 30.0002 28 30.0002H23.59L20.31 33.2802C20 33.5702 19.82 33.4002 19.71 33.2902L16.72 30.3102C16.43 30.0002 16.6 29.8202 16.71 29.7102L18 28.4102V24.4102L20 22.4102V24.0002C20 25.2102 20.8 27.0002 23 27.0002C25.2 27.0002 26 25.2102 26 24.0002H33V25.0002ZM33.29 20.2902L31.59 22.0002H24V24.0002C24 24.4502 23.81 25.0002 23 25.0002C22.19 25.0002 22 24.4502 22 24.0002V21.0002C22 20.5402 22.17 19.0002 24 19.0002H27.41L29.69 16.7202C30 16.4302 30.18 16.6002 30.29 16.7102L33.28 19.6902C33.57 20.0002 33.4 20.1802 33.29 20.2902Z" fill="white"/>
</g>
</svg>
