<svg width="50" height="50" viewBox="0 0 50 50" fill="none" xmlns="http://www.w3.org/2000/svg">
 <g transform="rotate(270 25 25)">

<circle cx="25" cy="25" r="25" fill="#FF28A0"/>
<circle cx="25" cy="25" r="25" fill="#FF28A0"/>
<g clip-path="url(#clip0_379_13729)">
<path d="M15.9692 24.5823H17.242V20.7625C17.2417 19.7431 17.4422 18.7336 17.8322 17.7917C18.2222 16.8499 18.7939 15.9941 19.5146 15.2732C20.2354 14.5523 21.0912 13.9805 22.033 13.5905C22.9749 13.2005 23.9843 12.9998 25.0037 13C26.0233 12.9994 27.033 13.1998 27.975 13.5897C28.9171 13.9796 29.773 14.5513 30.494 15.2723C31.2149 15.9932 31.7867 16.8492 32.1766 17.7912C32.5665 18.7333 32.7668 19.7429 32.7662 20.7625V24.5478C32.7505 24.556 32.7302 24.5748 32.7115 24.583L32.6912 24.6033H32.6845L32.6642 24.622H32.6372L32.617 24.6423H32.5982L32.578 24.649H32.5697L32.5615 24.661L32.5502 24.6693H32.542L32.53 24.6775L32.5217 24.6895L32.515 24.6963L32.503 24.7045L32.476 24.7248L32.4557 24.736L32.4287 24.7563L32.3897 24.772L32.362 24.7908L32.347 24.8028L32.335 24.811L32.308 24.8298L32.2877 24.838L32.2405 24.865L32.2217 24.877L32.206 24.8853L32.1872 24.8973H32.179L32.1197 24.9243H32.101L32.0342 24.9595H32.026L32.0192 24.9715L31.987 24.9865L31.972 24.9985L31.9397 25.0188L31.9247 25.0255H31.9127L31.8857 25.0458L31.8655 25.054L31.8467 25.0653C31.831 25.0735 31.804 25.081 31.7837 25.093L31.765 25.1013L31.7447 25.1125L31.7095 25.1283L31.6705 25.1485L31.5767 25.1875L31.558 25.1943L31.522 25.2145L31.5032 25.2265C29.956 25.9645 27.4832 26.7415 22.7965 27.0775C19.4335 27.3198 17.3905 28.8003 16.0697 30.5778L15.9692 24.5823ZM20.809 24.5823H29.1797V20.7625C29.1806 20.2128 29.073 19.6683 28.863 19.1602C28.6531 18.6521 28.3449 18.1905 27.9562 17.8018C27.5675 17.4131 27.1058 17.1049 26.5978 16.8949C26.0897 16.685 25.5452 16.5774 24.9955 16.5783C24.4458 16.578 23.9014 16.686 23.3934 16.8961C22.8855 17.1062 22.4239 17.4144 22.0351 17.8029C21.6462 18.1915 21.3377 18.6529 21.1272 19.1607C20.9167 19.6685 20.8083 20.2128 20.8082 20.7625L20.809 24.5823ZM34.0307 26.0433V37H18.5695C20.2765 36.055 21.5387 36.148 23.6477 36.2148C26.512 36.3085 29.6755 35.1085 31.2295 33.5155C32.7842 31.9255 31.0937 33.1405 29.3312 33.5898C27.5687 34.039 24.1592 34.09 21.8785 33.4878C29.0507 33.5815 31.8512 31.27 33.4337 29.1798C35.0155 27.1015 32.7497 28.816 31.2767 29.5345C29.809 30.2575 27.2417 30.7653 24.4135 30.3903C28.6832 30.3783 31.9337 28.2453 34.0225 26.0425L34.0307 26.0433Z" fill="white"/>
</g>
<defs>
<clipPath id="clip0_379_13729">
<rect width="24" height="24" fill="white" transform="translate(13 13)"/>
</clipPath>
</defs>
</g>
</svg>
