<svg width="50" height="50" viewBox="0 0 50 50" fill="none" xmlns="http://www.w3.org/2000/svg">
 <g transform="rotate(270 25 25)">

<circle cx="25" cy="25" r="25" fill="#FF28A0"/>
<circle cx="25" cy="25" r="25" fill="#FF28A0"/>
<path d="M25 19L26.434 21.7773L29.5 22.2227L27.25 24.25L28 27.25L25 25.5625L22 27.25L22.75 24.25L20.5 22.2227L23.65 21.7773L25 19Z" fill="white"/>
<path d="M26.302 35.5L25 34.75L28 29.5H32.5C32.6971 29.5003 32.8923 29.4617 33.0744 29.3864C33.2565 29.3111 33.422 29.2007 33.5613 29.0613C33.7007 28.922 33.8111 28.7565 33.8864 28.5744C33.9617 28.3923 34.0003 28.1971 34 28V19C34.0003 18.8029 33.9617 18.6077 33.8864 18.4256C33.8111 18.2435 33.7007 18.078 33.5613 17.9387C33.422 17.7993 33.2565 17.6889 33.0744 17.6136C32.8923 17.5383 32.6971 17.4997 32.5 17.5H17.5C17.3029 17.4997 17.1077 17.5383 16.9256 17.6136C16.7435 17.6889 16.578 17.7993 16.4387 17.9387C16.2993 18.078 16.1889 18.2435 16.1136 18.4256C16.0383 18.6077 15.9997 18.8029 16 19V28C15.9997 28.1971 16.0383 28.3923 16.1136 28.5744C16.1889 28.7565 16.2993 28.922 16.4387 29.0613C16.578 29.2007 16.7435 29.3111 16.9256 29.3864C17.1077 29.4617 17.3029 29.5003 17.5 29.5H24.25V31H17.5C16.7044 31 15.9413 30.6839 15.3787 30.1213C14.8161 29.5587 14.5 28.7956 14.5 28V19C14.5 18.2044 14.8161 17.4413 15.3787 16.8787C15.9413 16.3161 16.7044 16 17.5 16H32.5C33.2956 16 34.0587 16.3161 34.6213 16.8787C35.1839 17.4413 35.5 18.2044 35.5 19V28C35.5 28.7956 35.1839 29.5587 34.6213 30.1213C34.0587 30.6839 33.2956 31 32.5 31H28.8738L26.302 35.5Z" fill="white"/>
</g>
</svg>
