<svg width="50" height="50" viewBox="0 0 50 50" fill="none" xmlns="http://www.w3.org/2000/svg">
 <g transform="rotate(270 25 25)">

<circle cx="25" cy="25" r="25" fill="#FF28A0"/>
<circle cx="25" cy="25" r="25" fill="#FF28A0"/>
<g clip-path="url(#clip0_379_13717)">
<path d="M33.9766 31.1215C34.7422 31.4965 35.375 32.0238 35.875 32.7035C36.375 33.3832 36.6914 34.1488 36.8242 35.0004H35.5352C35.4492 34.5551 35.2891 34.141 35.0547 33.7582C34.8203 33.3754 34.5352 33.0472 34.1992 32.7738C33.8633 32.5004 33.4844 32.2816 33.0625 32.1176C32.6406 31.9535 32.2031 31.8754 31.75 31.8832C31.2891 31.8832 30.8516 31.9613 30.4375 32.1176C30.0234 32.2738 29.6445 32.4886 29.3008 32.7621C28.957 33.0355 28.6719 33.3676 28.4453 33.7582C28.2188 34.1488 28.0586 34.5629 27.9648 35.0004H26.6758C26.8008 34.1566 27.1133 33.3949 27.6133 32.7152C28.1133 32.0355 28.75 31.5043 29.5234 31.1215C29.0781 30.7699 28.7344 30.3441 28.4922 29.8441C28.25 29.3441 28.125 28.8129 28.1172 28.2504C28.1172 27.8988 28.1641 27.559 28.2578 27.2308C28.3516 26.9027 28.4922 26.5941 28.6797 26.3051C28.8672 26.016 29.0898 25.7582 29.3477 25.5316C29.6055 25.3051 29.8945 25.1136 30.2148 24.9574C30.0039 24.6527 29.7617 24.3832 29.4883 24.1488C29.2148 23.9144 28.918 23.7074 28.5977 23.5277C28.2773 23.348 27.9414 23.2191 27.5898 23.141C27.2383 23.0629 26.875 23.016 26.5 23.0004C25.875 23.0004 25.2773 23.1215 24.707 23.3636C24.1367 23.6058 23.6406 23.9613 23.2188 24.4301C23.4062 24.9379 23.5 25.4613 23.5 26.0004C23.5 26.7191 23.3398 27.3949 23.0195 28.0277C22.6992 28.6605 22.25 29.1918 21.6719 29.6215C22.1797 29.8793 22.6367 30.1957 23.043 30.5707C23.4492 30.9457 23.8008 31.3676 24.0977 31.8363C24.3945 32.3051 24.6172 32.8051 24.7656 33.3363C24.9141 33.8676 24.9922 34.4222 25 35.0004H23.5C23.5 34.3832 23.3828 33.8011 23.1484 33.2543C22.9141 32.7074 22.5938 32.2308 22.1875 31.8246C21.7812 31.4183 21.3008 31.0941 20.7461 30.8519C20.1914 30.6097 19.6094 30.4926 19 30.5004C18.375 30.5004 17.793 30.6176 17.2539 30.8519C16.7148 31.0863 16.2383 31.4066 15.8242 31.8129C15.4102 32.2191 15.0859 32.6996 14.8516 33.2543C14.6172 33.809 14.5 34.391 14.5 35.0004H13C13 34.4301 13.0781 33.8793 13.2344 33.348C13.3906 32.8168 13.6133 32.3168 13.9023 31.848C14.1914 31.3793 14.5391 30.9574 14.9453 30.5824C15.3516 30.2074 15.8125 29.8871 16.3281 29.6215C15.75 29.1918 15.3008 28.6605 14.9805 28.0277C14.6602 27.3949 14.5 26.7191 14.5 26.0004C14.5 25.3832 14.6172 24.8011 14.8516 24.2543C15.0859 23.7074 15.4062 23.2308 15.8125 22.8246C16.2188 22.4183 16.6953 22.0941 17.2422 21.8519C17.7891 21.6097 18.375 21.4926 19 21.5004C19.6641 21.5004 20.293 21.641 20.8867 21.9222C21.4805 22.2035 21.9961 22.5941 22.4336 23.0941C22.6367 22.8988 22.8555 22.723 23.0898 22.5668C23.3242 22.4105 23.5703 22.2621 23.8281 22.1215C23.25 21.6918 22.8008 21.1605 22.4805 20.5277C22.1602 19.8949 22 19.2191 22 18.5004C22 17.8832 22.1172 17.3011 22.3516 16.7543C22.5859 16.2074 22.9062 15.7308 23.3125 15.3246C23.7188 14.9183 24.1953 14.5941 24.7422 14.3519C25.2891 14.1097 25.875 13.9926 26.5 14.0004C27.1172 14.0004 27.6992 14.1176 28.2461 14.3519C28.793 14.5863 29.2695 14.9066 29.6758 15.3129C30.082 15.7191 30.4062 16.1996 30.6484 16.7543C30.8906 17.309 31.0078 17.891 31 18.5004C31 19.2191 30.8398 19.8949 30.5195 20.5277C30.1992 21.1605 29.75 21.6918 29.1719 22.1215C29.7188 22.4105 30.2109 22.7621 30.6484 23.1761C31.0859 23.5902 31.457 24.0707 31.7617 24.6176C32.2617 24.6176 32.7305 24.7113 33.168 24.8988C33.6055 25.0863 33.9922 25.348 34.3281 25.684C34.6641 26.0199 34.9219 26.4027 35.1016 26.8324C35.2812 27.2621 35.375 27.7347 35.3828 28.2504C35.3828 28.8129 35.2617 29.3441 35.0195 29.8441C34.7773 30.3441 34.4297 30.7699 33.9766 31.1215ZM19 29.0004C19.4141 29.0004 19.8008 28.9222 20.1602 28.766C20.5195 28.6097 20.8398 28.3949 21.1211 28.1215C21.4023 27.848 21.6172 27.5316 21.7656 27.1722C21.9141 26.8129 21.9922 26.4222 22 26.0004C22 25.5863 21.9219 25.1996 21.7656 24.8402C21.6094 24.4808 21.3945 24.1605 21.1211 23.8793C20.8477 23.598 20.5312 23.3832 20.1719 23.2347C19.8125 23.0863 19.4219 23.0082 19 23.0004C18.5859 23.0004 18.1992 23.0785 17.8398 23.2347C17.4805 23.391 17.1602 23.6058 16.8789 23.8793C16.5977 24.1527 16.3828 24.4691 16.2344 24.8285C16.0859 25.1879 16.0078 25.5785 16 26.0004C16 26.4144 16.0781 26.8011 16.2344 27.1605C16.3906 27.5199 16.6055 27.8402 16.8789 28.1215C17.1523 28.4027 17.4688 28.6176 17.8281 28.766C18.1875 28.9144 18.5781 28.9926 19 29.0004ZM23.5 18.5004C23.5 18.9144 23.5781 19.3011 23.7344 19.6605C23.8906 20.0199 24.1055 20.3402 24.3789 20.6215C24.6523 20.9027 24.9688 21.1176 25.3281 21.266C25.6875 21.4144 26.0781 21.4926 26.5 21.5004C26.9141 21.5004 27.3008 21.4222 27.6602 21.266C28.0195 21.1097 28.3398 20.8949 28.6211 20.6215C28.9023 20.348 29.1172 20.0316 29.2656 19.6722C29.4141 19.3129 29.4922 18.9222 29.5 18.5004C29.5 18.0863 29.4219 17.6996 29.2656 17.3402C29.1094 16.9808 28.8945 16.6605 28.6211 16.3793C28.3477 16.098 28.0312 15.8832 27.6719 15.7347C27.3125 15.5863 26.9219 15.5082 26.5 15.5004C26.0859 15.5004 25.6992 15.5785 25.3398 15.7347C24.9805 15.891 24.6602 16.1058 24.3789 16.3793C24.0977 16.6527 23.8828 16.9691 23.7344 17.3285C23.5859 17.6879 23.5078 18.0785 23.5 18.5004ZM31.75 25.8832C31.4219 25.8832 31.1172 25.9457 30.8359 26.0707C30.5547 26.1957 30.3047 26.3636 30.0859 26.5746C29.8672 26.7855 29.6953 27.0355 29.5703 27.3246C29.4453 27.6136 29.3828 27.9222 29.3828 28.2504C29.3828 28.5785 29.4453 28.8832 29.5703 29.1644C29.6953 29.4457 29.8633 29.6957 30.0742 29.9144C30.2852 30.1332 30.5352 30.3051 30.8242 30.4301C31.1133 30.5551 31.4219 30.6176 31.75 30.6176C32.0781 30.6176 32.3828 30.5551 32.6641 30.4301C32.9453 30.3051 33.1953 30.1371 33.4141 29.9261C33.6328 29.7152 33.8047 29.4652 33.9297 29.1761C34.0547 28.8871 34.1172 28.5785 34.1172 28.2504C34.1172 27.9222 34.0547 27.6176 33.9297 27.3363C33.8047 27.0551 33.6367 26.8051 33.4258 26.5863C33.2148 26.3676 32.9648 26.1957 32.6758 26.0707C32.3867 25.9457 32.0781 25.8832 31.75 25.8832Z" fill="white"/>
</g>
<defs>
<clipPath id="clip0_379_13717">
<rect width="24" height="21" fill="white" transform="translate(13 14)"/>
</clipPath>
</defs>
</g>
</svg>
