<svg width="14" height="14" viewBox="0 0 14 14" fill="none" xmlns="http://www.w3.org/2000/svg">
<path d="M6.59961 2.60039C6.09128 2.60039 5.62253 2.72539 5.19336 2.97539C4.76419 3.22539 4.42461 3.56497 4.17461 3.99414C3.92461 4.42331 3.79961 4.89206 3.79961 5.40039C3.79961 5.87539 3.91003 6.31706 4.13086 6.72539C4.35169 7.13372 4.65378 7.46706 5.03711 7.72539C4.56211 7.93372 4.13919 8.22122 3.76836 8.58789C3.39753 8.95456 3.11211 9.37539 2.91211 9.85039C2.70378 10.3421 2.59961 10.8587 2.59961 11.4004H3.39961C3.39961 10.8171 3.54336 10.2816 3.83086 9.79414C4.11836 9.30664 4.50586 8.91914 4.99336 8.63164C5.48086 8.34414 6.01628 8.20039 6.59961 8.20039C7.18294 8.20039 7.71836 8.34414 8.20586 8.63164C8.69336 8.91914 9.08086 9.30664 9.36836 9.79414C9.65586 10.2816 9.79961 10.8171 9.79961 11.4004H10.5996C10.5996 10.8587 10.4954 10.3421 10.2871 9.85039C10.0871 9.37539 9.80169 8.95456 9.43086 8.58789C9.06003 8.22122 8.63711 7.93372 8.16211 7.72539C8.54544 7.46706 8.84753 7.13372 9.06836 6.72539C9.28919 6.31706 9.39961 5.87539 9.39961 5.40039C9.39961 4.89206 9.27461 4.42331 9.02461 3.99414C8.77461 3.56497 8.43503 3.22539 8.00586 2.97539C7.57669 2.72539 7.10794 2.60039 6.59961 2.60039ZM6.59961 3.40039C6.96628 3.40039 7.30169 3.48997 7.60586 3.66914C7.91003 3.84831 8.15169 4.08997 8.33086 4.39414C8.51003 4.69831 8.59961 5.03372 8.59961 5.40039C8.59961 5.76706 8.51003 6.10247 8.33086 6.40664C8.15169 6.71081 7.91003 6.95247 7.60586 7.13164C7.30169 7.31081 6.96628 7.40039 6.59961 7.40039C6.23294 7.40039 5.89753 7.31081 5.59336 7.13164C5.28919 6.95247 5.04753 6.71081 4.86836 6.40664C4.68919 6.10247 4.59961 5.76706 4.59961 5.40039C4.59961 5.03372 4.68919 4.69831 4.86836 4.39414C5.04753 4.08997 5.28919 3.84831 5.59336 3.66914C5.89753 3.48997 6.23294 3.40039 6.59961 3.40039Z" fill="#6D6E6F"/>
</svg>
