<svg width="44" height="43" viewBox="0 0 44 43" fill="none" xmlns="http://www.w3.org/2000/svg">
<g filter="url(#filter0_d_167_10962)">
<path d="M4 0.625V10H13.375V0.625H4ZM7.125 3.75H10.25V6.875H7.125V3.75ZM16.5 3.75V6.875H39.9375V3.75H16.5ZM4 13.125V22.5H13.375V13.125H4ZM7.125 16.25H10.25V19.375H7.125V16.25ZM16.5 16.25V19.375H39.9375V16.25H16.5ZM4 25.625V35H13.375V25.625H4ZM7.125 28.75H10.25V31.875H7.125V28.75ZM16.5 28.75V31.875H39.9375V28.75H16.5Z" fill="#FD2C79"/>
</g>
<defs>
<filter id="filter0_d_167_10962" x="0" y="0.625" width="43.9375" height="42.375" filterUnits="userSpaceOnUse" color-interpolation-filters="sRGB">
<feFlood flood-opacity="0" result="BackgroundImageFix"/>
<feColorMatrix in="SourceAlpha" type="matrix" values="0 0 0 0 0 0 0 0 0 0 0 0 0 0 0 0 0 0 127 0" result="hardAlpha"/>
<feOffset dy="4"/>
<feGaussianBlur stdDeviation="2"/>
<feComposite in2="hardAlpha" operator="out"/>
<feColorMatrix type="matrix" values="0 0 0 0 0 0 0 0 0 0 0 0 0 0 0 0 0 0 0.25 0"/>
<feBlend mode="normal" in2="BackgroundImageFix" result="effect1_dropShadow_167_10962"/>
<feBlend mode="normal" in="SourceGraphic" in2="effect1_dropShadow_167_10962" result="shape"/>
</filter>
</defs>
</svg>
