<svg width="58" height="52" viewBox="0 0 58 52" fill="none" xmlns="http://www.w3.org/2000/svg">
<g filter="url(#filter0_d_167_10928)">
<path d="M17.3929 0.975445C14.9747 0.975445 12.7426 1.57998 10.6964 2.78906C8.6503 3.99814 7.02269 5.62574 5.81362 7.67187C4.60454 9.718 4 11.9501 4 14.3683C4 16.4144 4.74405 18.535 6.23214 20.7299C6.93899 21.8088 7.66443 22.683 8.40848 23.3527L29 44L50.2612 22.683C50.8192 22.0878 51.34 21.4554 51.8237 20.7857C52.4561 19.8557 52.9583 18.907 53.3304 17.9397C53.7768 16.7121 54 15.5216 54 14.3683C54 11.9501 53.3955 9.718 52.1864 7.67187C50.9773 5.62574 49.3497 3.99814 47.3036 2.78906C45.2574 1.57998 43.0253 0.975445 40.6071 0.975445C36.2917 0.975445 32.4226 2.72396 29 6.22098C25.5774 2.72396 21.7083 0.975445 17.3929 0.975445ZM17.3929 4.54687C18.6205 4.54687 19.904 4.82589 21.2433 5.38393C22.3222 5.79315 23.4196 6.36979 24.5357 7.11384C25.317 7.67187 26.0796 8.26711 26.8237 8.89955L27.6607 9.73661L29 11.2433L30.3393 9.73661L31.1763 8.89955C31.9204 8.26711 32.683 7.67187 33.4643 7.11384C34.5804 6.36979 35.6778 5.79315 36.7567 5.38393C38.096 4.82589 39.3795 4.54687 40.6071 4.54687C42.3929 4.54687 44.0391 4.9933 45.5458 5.88616C47.0525 6.77901 48.2429 7.97879 49.1172 9.48549C49.9914 10.9922 50.4286 12.6198 50.4286 14.3683C50.4286 15.1868 50.131 16.154 49.5357 17.2701C49.1265 18.0885 48.6057 18.9256 47.9732 19.7812L47.0804 20.8415L29 38.9219L10.9196 20.8415L10.3616 20.2835C9.95238 19.7626 9.56176 19.2418 9.18973 18.721C8.7061 18.0141 8.33408 17.3073 8.07366 16.6004C7.73884 15.782 7.57143 15.0379 7.57143 14.3683C7.57143 12.6198 8.00856 10.9922 8.88281 9.48549C9.75707 7.97879 10.9475 6.77901 12.4542 5.88616C13.9609 4.9933 15.6071 4.54687 17.3929 4.54687Z" fill="#FD2C79"/>
</g>
<defs>
<filter id="filter0_d_167_10928" x="0" y="0.974609" width="58" height="51.0254" filterUnits="userSpaceOnUse" color-interpolation-filters="sRGB">
<feFlood flood-opacity="0" result="BackgroundImageFix"/>
<feColorMatrix in="SourceAlpha" type="matrix" values="0 0 0 0 0 0 0 0 0 0 0 0 0 0 0 0 0 0 127 0" result="hardAlpha"/>
<feOffset dy="4"/>
<feGaussianBlur stdDeviation="2"/>
<feComposite in2="hardAlpha" operator="out"/>
<feColorMatrix type="matrix" values="0 0 0 0 0 0 0 0 0 0 0 0 0 0 0 0 0 0 0.25 0"/>
<feBlend mode="normal" in2="BackgroundImageFix" result="effect1_dropShadow_167_10928"/>
<feBlend mode="normal" in="SourceGraphic" in2="effect1_dropShadow_167_10928" result="shape"/>
</filter>
</defs>
</svg>
